<?xml version="1.0" standalone="no"?>
<!DOCTYPE svg PUBLIC "-//W3C//DTD SVG 20010904//EN"
 "http://www.w3.org/TR/2001/REC-SVG-20010904/DTD/svg10.dtd">
<svg version="1.0" xmlns="http://www.w3.org/2000/svg"
 width="1681.000000pt" height="1681.000000pt" viewBox="0 0 1681.000000 1681.000000"
 preserveAspectRatio="xMidYMid meet">
<metadata>
Created by potrace 1.11, written by Peter Selinger 2001-2013
</metadata>
<g transform="translate(0.000000,1681.000000) scale(0.100000,-0.100000)"
fill="#000000" stroke="none">
<path d="M4542 15934 c-22 -15 -22 -19 -22 -239 0 -190 2 -226 16 -239 14 -14
80 -16 578 -16 469 0 565 2 582 14 18 13 19 30 22 230 l3 216 -25 25 -25 25
-553 0 c-485 0 -556 -2 -576 -16z"/>
<path d="M6474 15640 l-298 -310 -1083 0 -1083 0 0 -2590 0 -2590 1055 0 1055
0 2 -982 2 -983 7 1195 c3 657 7 1315 8 1463 l1 267 1110 0 1110 0 0 220 0
220 28 5 c92 20 144 76 150 164 7 97 -46 170 -135 187 -20 4 -33 12 -33 21 0
13 11 14 68 8 37 -3 114 -1 171 5 492 54 880 412 987 910 28 129 25 354 -6
480 -42 173 -105 312 -201 441 -61 82 -185 202 -269 259 -135 91 -330 165
-492 185 -72 9 -78 31 -16 60 63 30 101 90 101 157 0 87 -44 149 -124 172
-117 35 38 38 206 5 333 -67 641 -250 861 -514 187 -223 314 -508 353 -789 16
-112 14 -375 -4 -481 -90 -551 -454 -1007 -964 -1206 -57 -22 -147 -50 -200
-61 -53 -11 -102 -22 -108 -24 -10 -3 -13 -54 -13 -214 l0 -210 1095 0 1095 0
1 -362 c1 -200 5 -858 8 -1463 l7 -1100 2 983 2 982 1050 0 1050 0 0 2590 0
2590 -1161 0 -1161 0 -211 218 c-117 119 -252 259 -301 310 l-90 92 -1667 0
-1668 0 -297 -310z m5593 -816 c60 -29 117 -88 146 -153 16 -35 22 -66 22
-126 0 -93 -21 -148 -81 -215 -61 -67 -124 -95 -219 -95 -94 0 -150 22 -214
86 -66 66 -86 119 -86 224 0 78 4 97 27 141 79 152 253 211 405 138z m-6435
-544 c30 -18 51 -20 266 -20 l232 0 0 -245 0 -245 -285 0 -285 0 0 298 0 297
20 -33 c11 -18 34 -41 52 -52z m3125 -329 c105 -26 198 -68 279 -126 206 -147
308 -436 276 -779 -16 -168 -25 -191 -42 -101 -89 475 -457 813 -1021 939 -63
14 -145 28 -183 32 -38 4 -62 10 -55 14 8 4 66 15 129 24 63 9 126 18 140 20
14 3 108 3 210 1 145 -3 203 -8 267 -24z m-2627 -846 l0 -625 -285 0 -285 0 0
625 0 625 285 0 285 0 0 -625z m0 -924 l0 -260 -234 -3 c-261 -3 -263 -4 -313
-78 l-23 -33 0 317 0 316 285 0 285 0 0 -259z"/>
<path d="M6440 9485 l0 -1295 2080 0 2080 0 0 1295 0 1295 -2080 0 -2080 0 0
-1295z"/>
<path d="M7038 7265 c-2 -2 -39 -5 -83 -6 -64 -1 -90 -7 -142 -31 -34 -17 -63
-34 -63 -40 0 -5 -8 -22 -19 -36 -33 -48 -35 -85 -6 -120 14 -16 25 -36 25
-44 0 -9 28 -22 78 -37 42 -12 98 -29 125 -37 53 -16 145 -25 152 -15 5 9 53
6 78 -4 13 -6 18 -1 23 24 4 18 15 36 25 41 10 6 20 19 24 29 3 11 25 39 48
63 47 48 52 68 30 116 -24 51 -97 83 -193 86 -42 2 -82 6 -87 9 -6 4 -12 4
-15 2z"/>
<path d="M13408 7265 c-2 -2 -39 -5 -83 -6 -64 -1 -90 -7 -142 -31 -34 -17
-63 -34 -63 -40 0 -5 -8 -22 -19 -36 -33 -48 -35 -85 -6 -120 14 -16 25 -36
25 -44 0 -9 28 -22 78 -37 42 -12 98 -29 125 -37 53 -16 145 -25 152 -15 5 9
53 6 78 -4 13 -6 18 -1 23 24 4 18 15 36 25 41 10 6 20 19 24 29 3 11 25 39
48 63 47 48 52 68 30 116 -24 51 -97 83 -193 86 -42 2 -82 6 -87 9 -6 4 -12 4
-15 2z"/>
<path d="M577 7099 c-10 -15 -13 -16 -34 -2 -21 14 -23 14 -23 -1 0 -8 -12
-23 -26 -33 -21 -13 -30 -14 -45 -5 -25 16 -26 15 -32 -8 -6 -23 -27 -27 -27
-5 0 22 -21 18 -27 -6 -4 -16 -11 -19 -29 -15 -17 5 -31 -3 -60 -34 -21 -22
-44 -38 -51 -36 -10 4 -13 -15 -15 -77 -3 -132 -4 -146 -18 -162 -8 -10 -9
-15 -1 -15 6 0 11 4 11 9 0 5 7 11 14 14 15 6 12 -16 -5 -39 -5 -6 -6 -14 -2
-18 4 -4 0 -4 -8 -1 -10 4 -16 0 -16 -10 0 -8 7 -15 14 -15 11 0 14 -11 12
-41 -2 -23 2 -43 9 -47 13 -9 13 -152 0 -152 -5 0 -8 -10 -7 -22 0 -22 1 -22
8 -3 5 11 7 -34 5 -100 -2 -66 -4 -120 -4 -120 -1 0 -3 -10 -4 -22 -1 -12 2
-20 7 -16 5 3 7 -16 6 -44 -1 -27 0 -54 4 -60 4 -6 0 -13 -8 -17 -17 -6 -20
-51 -5 -61 6 -3 10 -19 10 -35 0 -34 17 -49 27 -23 6 16 8 15 13 -7 4 -17 12
-24 24 -22 20 4 18 -16 -6 -75 -13 -32 -17 -123 -5 -123 4 0 7 20 7 45 0 36 4
47 25 61 14 9 25 22 25 30 0 7 11 16 24 20 15 3 27 16 31 31 7 30 19 22 21
-15 4 -60 -18 -197 -33 -214 -15 -17 -15 -18 5 -18 61 0 122 63 127 131 2 30
13 51 23 45 4 -2 7 12 7 32 1 21 9 52 18 71 11 22 14 38 8 45 -11 12 3 45 14
34 19 -19 36 -319 21 -393 -5 -26 -4 -35 2 -27 7 11 10 9 15 -7 3 -14 0 -21
-9 -21 -8 0 -14 -4 -14 -10 0 -5 4 -10 9 -10 5 0 11 -18 13 -40 2 -22 0 -40
-4 -40 -5 0 -8 -13 -8 -29 0 -16 -6 -34 -14 -40 -11 -9 -12 -20 -5 -44 12 -43
12 -43 -13 -67 -12 -11 -16 -20 -10 -20 9 0 7 -8 -4 -25 -9 -14 -13 -32 -10
-41 3 -9 3 -21 -1 -27 -3 -6 -8 -33 -10 -61 -2 -30 -12 -62 -23 -78 -11 -15
-21 -42 -21 -60 -2 -31 -2 -31 -6 -5 -4 26 -29 34 -27 9 1 -7 2 -32 3 -57 0
-25 6 -45 12 -45 7 0 9 10 5 25 -7 26 0 31 22 16 12 -7 11 -13 -1 -37 -13 -25
-24 -40 -66 -90 -6 -7 -15 -14 -20 -15 -6 -2 -12 -17 -13 -34 -2 -28 -38 -91
-38 -67 0 6 5 14 11 17 6 4 8 13 5 20 -2 7 -2 16 1 19 4 4 8 25 10 49 2 23 9
57 14 75 8 24 8 37 -1 47 -17 20 -30 19 -30 -2 -1 -27 -26 -57 -35 -42 -6 8
-10 7 -17 -5 -5 -9 -6 -22 -1 -29 7 -11 14 -105 16 -202 0 -22 -3 -50 -8 -62
-4 -14 -3 -23 3 -23 6 0 13 9 17 19 3 10 13 22 23 25 9 3 22 9 29 12 7 3 10
-2 6 -15 -3 -12 -12 -21 -20 -21 -10 0 -13 -6 -9 -16 14 -38 17 -91 5 -119
-12 -28 -13 -29 -16 -7 -7 36 -23 25 -22 -15 3 -69 0 -81 -19 -79 -14 1 -17
-7 -18 -41 0 -24 -3 -45 -6 -48 -3 -3 -3 -35 0 -70 3 -42 1 -70 -7 -79 -13
-15 -4 -49 11 -40 5 3 13 17 19 31 6 15 14 22 21 17 7 -4 10 -3 5 1 -4 5 3 19
15 33 17 18 23 37 24 75 3 93 3 95 15 74 6 -10 9 -38 7 -63 -2 -24 0 -44 3
-44 6 0 29 -99 29 -123 0 -5 -7 -6 -16 -3 -12 5 -15 0 -14 -22 1 -15 2 -38 1
-52 -2 -24 -2 -24 -13 -5 -7 11 -18 26 -25 33 -16 16 -17 29 -3 37 6 4 8 11 4
16 -3 5 -17 -7 -30 -26 -13 -20 -21 -41 -18 -47 4 -6 1 -14 -6 -18 -16 -10
-16 -89 -1 -118 8 -16 8 -24 -4 -36 -8 -8 -15 -22 -15 -31 0 -9 -4 -14 -9 -10
-5 3 -7 20 -4 39 4 25 1 35 -12 40 -26 10 -34 -1 -33 -45 0 -33 5 -42 24 -49
26 -10 31 -25 11 -33 -7 -3 3 -18 27 -39 37 -33 39 -37 32 -76 -4 -26 -2 -42
4 -42 5 0 10 -11 10 -24 0 -14 4 -28 10 -31 5 -3 10 -25 10 -48 l0 -42 87 2
c102 3 116 7 109 30 -11 36 7 44 53 26 43 -17 44 -17 61 5 10 11 20 19 23 16
3 -3 25 6 50 20 24 14 51 26 60 26 10 0 17 4 17 9 0 5 14 12 30 16 19 4 30 13
30 24 0 12 14 22 41 31 27 9 49 26 63 47 12 18 33 35 48 38 15 4 30 15 33 26
7 20 25 27 25 8 0 -5 15 2 34 16 43 33 67 92 65 159 -1 28 1 97 3 153 3 56 2
107 -3 114 -4 7 -1 22 7 33 11 18 11 30 -1 77 -13 48 -13 62 -1 90 8 20 11 56
9 89 -2 30 -4 62 -3 70 1 8 1 41 1 72 0 31 4 60 9 63 6 4 7 17 4 30 -7 27 3
65 17 65 10 0 13 -2 70 -50 20 -16 43 -30 51 -30 7 0 40 -27 73 -60 62 -63 95
-82 51 -29 -14 17 -26 35 -26 40 0 5 -5 9 -11 9 -15 0 -39 26 -39 42 0 7 -7
24 -16 36 -9 13 -14 26 -11 28 8 8 146 -95 157 -117 6 -10 15 -19 21 -19 19 0
56 -35 51 -49 -3 -8 0 -11 5 -8 10 7 124 -63 182 -110 80 -67 111 -101 105
-117 -9 -23 -23 -20 -30 8 -6 24 -29 36 -70 36 -24 0 -59 34 -50 49 9 14 -14
25 -46 23 -15 -1 -28 2 -28 7 0 5 -9 9 -19 8 -26 -2 -17 -19 21 -41 97 -58
268 -212 268 -243 0 -20 49 -51 103 -67 85 -24 117 -28 117 -17 0 5 -10 11
-22 13 -16 2 -22 9 -21 23 1 11 -4 23 -10 27 -8 5 -7 9 4 13 11 4 14 15 11 35
-5 37 10 39 39 6 17 -19 24 -22 34 -13 9 8 10 16 4 24 -7 7 -6 14 1 18 7 4 26
-8 46 -29 19 -20 36 -36 39 -35 3 1 19 -4 35 -11 22 -9 32 -9 42 0 7 6 28 20
46 31 18 11 30 24 27 29 -3 6 1 10 9 10 9 0 16 6 16 13 1 6 18 25 39 42 l38
30 -40 39 c-27 26 -37 44 -34 58 4 14 2 17 -7 9 -10 -8 -21 1 -45 34 -18 25
-39 45 -47 45 -8 0 -14 6 -14 14 0 8 -13 23 -30 33 -16 9 -30 21 -30 25 0 4
-8 8 -18 8 -9 0 -26 12 -37 27 -11 15 -30 37 -42 49 -13 12 -23 26 -23 33 0 6
-11 11 -24 11 -14 0 -31 8 -38 18 -12 18 -44 38 -97 62 -18 8 -22 16 -19 35 3
14 2 25 -2 25 -4 0 -23 15 -42 33 -53 49 -115 101 -198 166 -41 32 -101 87
-134 122 -32 35 -67 67 -77 71 -11 4 -19 14 -19 23 0 8 -7 15 -15 15 -8 0 -24
14 -37 30 -12 17 -27 30 -34 30 -6 0 -18 8 -25 17 -12 15 -12 16 4 10 11 -4
16 -3 12 3 -7 12 23 60 39 60 6 0 20 16 30 35 11 19 23 35 28 35 5 0 13 11 18
25 6 16 14 23 25 19 9 -4 15 0 15 9 0 9 9 22 20 30 12 8 18 21 15 29 -4 9 4
21 19 32 15 9 26 25 26 36 0 10 8 25 18 32 9 7 25 24 34 38 8 14 27 39 42 55
14 17 26 33 26 38 0 4 6 7 13 7 6 0 31 25 54 55 24 30 50 55 58 55 17 0 74 59
75 77 0 6 11 20 24 30 13 11 41 46 61 79 21 32 54 81 74 109 22 30 41 71 48
105 21 95 37 150 45 150 5 0 8 8 8 18 0 10 13 33 30 52 16 19 29 43 30 52 0 9
3 18 8 20 15 6 52 61 46 69 -3 5 -2 14 2 21 15 25 14 75 -1 88 -10 8 -51 15
-107 17 -50 1 -96 7 -102 12 -16 14 -77 4 -98 -16 -11 -10 -47 -46 -81 -81
-33 -35 -66 -61 -74 -58 -7 3 -12 2 -11 -2 3 -15 -15 -42 -28 -42 -8 0 -14 -6
-15 -12 0 -7 -27 -35 -61 -63 -33 -27 -68 -61 -76 -75 -9 -14 -22 -31 -31 -37
-13 -12 -13 -13 1 -13 9 0 18 7 22 15 3 8 13 14 23 14 17 -1 17 -2 1 -6 -10
-2 -21 -15 -24 -29 -3 -13 -19 -34 -35 -45 -16 -11 -26 -25 -23 -30 3 -6 -2
-16 -12 -24 -14 -10 -21 -10 -26 -2 -5 8 -8 4 -8 -9 0 -11 -11 -31 -25 -44
-28 -27 -34 -50 -7 -29 9 7 6 1 -7 -13 -13 -15 -28 -25 -34 -21 -6 3 -7 1 -4
-4 4 -6 0 -13 -8 -17 -8 -3 -15 -17 -15 -31 0 -14 -6 -28 -14 -31 -8 -3 -12
-13 -9 -25 3 -10 0 -19 -6 -19 -6 0 -16 -11 -21 -25 -6 -16 -17 -25 -30 -25
-16 0 -20 -5 -16 -17 3 -10 -1 -29 -10 -43 l-14 -25 6 29 c5 21 4 27 -5 22 -6
-4 -11 -13 -11 -19 0 -7 -10 -17 -22 -22 -17 -8 -22 -18 -21 -40 2 -21 -6 -38
-28 -61 -17 -18 -29 -36 -27 -41 2 -4 -13 -25 -34 -46 -21 -20 -38 -34 -38
-30 0 5 -5 1 -11 -7 -8 -12 -9 -9 -5 12 4 17 1 32 -9 42 -8 8 -15 19 -15 24 0
5 -8 16 -17 23 -11 9 -14 10 -9 2 4 -7 2 -23 -5 -35 -11 -20 -14 -33 -18 -78
-1 -10 -4 -11 -11 -4 -8 8 -6 24 4 55 11 32 14 80 13 177 -2 87 1 146 9 170 8
22 10 41 4 51 -5 9 -10 12 -10 6 0 -5 -6 0 -14 11 -15 21 -21 190 -7 212 4 7
6 26 3 42 -3 22 -10 30 -24 30 -15 0 -18 4 -13 18 3 9 9 48 11 87 3 38 6 72 7
75 1 3 -2 7 -8 10 -5 3 -12 -6 -14 -20 -3 -22 -4 -23 -11 -6 -3 11 -3 38 1 60
4 25 3 43 -3 47 -5 4 -8 32 -7 63 3 47 1 56 -13 56 -12 0 -15 6 -11 21 5 17 2
20 -13 15 -17 -5 -19 0 -19 40 -1 35 -6 50 -22 64 -12 10 -19 21 -15 24 3 4
-1 4 -9 1 -12 -5 -18 2 -22 24 -4 18 -13 31 -21 31 -8 0 -17 9 -21 19 -7 22
-45 35 -59 21 -15 -15 -26 -12 -20 5 4 8 2 15 -4 15 -6 0 -12 -5 -14 -11 -3
-8 -14 -7 -39 5 -19 9 -63 17 -98 19 -51 2 -65 0 -74 -14z m1193 -647 c0 -13
-12 -22 -22 -16 -10 6 -1 24 13 24 5 0 9 -4 9 -8z m-1180 -466 c0 -3 -4 -8
-10 -11 -5 -3 -10 -1 -10 4 0 6 5 11 10 11 6 0 10 -2 10 -4z m807 -118 c-3 -8
-6 -5 -6 6 -1 11 2 17 5 13 3 -3 4 -12 1 -19z m-296 -239 c-5 -13 -10 -19 -10
-12 -1 15 10 45 15 40 3 -2 0 -15 -5 -28z m-637 -931 c-6 -10 -4 -10 7 0 7 6
23 12 36 12 l23 0 -25 -47 c-14 -27 -25 -54 -25 -60 0 -7 -6 -13 -14 -13 -24
0 -36 104 -13 113 18 8 19 8 11 -5z m11 -180 c-2 -35 1 -69 7 -75 7 -9 7 -17
1 -25 -6 -7 -9 -38 -7 -70 2 -40 -1 -60 -11 -68 -8 -7 -15 -11 -16 -9 0 2 -1
73 -2 157 -2 136 -1 152 14 152 15 0 17 -9 14 -62z m1393 -56 c15 -13 39 -30
55 -38 15 -8 27 -21 27 -29 0 -8 9 -19 20 -25 11 -6 27 -24 36 -41 15 -29 14
-30 -4 -20 -18 10 -131 105 -182 154 -14 13 -37 27 -52 31 -19 4 -28 13 -28
27 0 19 2 19 50 -8 28 -15 63 -39 78 -51z m178 -186 c18 -19 18 -27 0 -20 -14
5 -31 34 -20 34 3 0 12 -6 20 -14z m-101 -16 c3 -5 1 -10 -4 -10 -6 0 -11 5
-11 10 0 6 2 10 4 10 3 0 8 -4 11 -10z m26 -47 c13 -15 12 -15 -8 -4 -24 12
-29 21 -14 21 5 0 15 -7 22 -17z m142 -17 c-4 -6 -8 -5 -11 2 -2 7 -8 10 -13
6 -5 -3 -9 2 -9 10 0 13 3 14 19 4 11 -7 17 -17 14 -22z m-1743 -297 c0 -11 4
-29 10 -39 7 -13 6 -19 -6 -24 -9 -3 -14 -15 -12 -28 2 -11 -3 -23 -9 -25 -9
-3 -13 6 -13 27 0 18 4 29 10 25 13 -8 13 41 0 66 -8 15 -7 19 5 19 8 0 15 -9
15 -21z m820 -69 c0 -5 -4 -10 -10 -10 -5 0 -10 5 -10 10 0 6 5 10 10 10 6 0
10 -4 10 -10z m-35 -10 c11 -17 -5 -32 -21 -19 -7 6 -11 15 -8 20 7 12 21 11
29 -1z m-715 -185 c8 -9 8 -15 2 -15 -18 0 -42 12 -42 21 0 14 26 10 40 -6z"/>
<path d="M8257 7099 c-10 -15 -13 -16 -34 -2 -21 14 -23 14 -23 -1 0 -8 -12
-23 -26 -33 -21 -13 -30 -14 -45 -5 -25 16 -26 15 -32 -8 -6 -23 -27 -27 -27
-5 0 22 -21 18 -27 -6 -4 -16 -11 -19 -29 -15 -17 5 -31 -3 -60 -34 -21 -22
-44 -38 -51 -36 -10 4 -13 -15 -15 -77 -3 -132 -4 -146 -18 -162 -8 -10 -9
-15 -1 -15 6 0 11 4 11 9 0 5 7 11 14 14 15 6 12 -16 -5 -39 -5 -6 -6 -14 -2
-18 4 -4 0 -4 -8 -1 -10 4 -16 0 -16 -10 0 -8 7 -15 14 -15 11 0 14 -11 12
-41 -2 -23 2 -43 9 -47 13 -9 13 -152 0 -152 -5 0 -8 -10 -7 -22 0 -22 1 -22
8 -3 5 11 7 -34 5 -100 -2 -66 -4 -120 -4 -120 -1 0 -3 -10 -4 -22 -1 -12 2
-20 7 -16 5 3 7 -16 6 -44 -1 -27 0 -54 4 -60 4 -6 0 -13 -8 -17 -17 -6 -20
-51 -5 -61 6 -3 10 -19 10 -35 0 -34 17 -49 27 -23 6 16 8 15 13 -7 4 -17 12
-24 24 -22 20 4 18 -16 -6 -75 -13 -32 -17 -123 -5 -123 4 0 7 20 7 45 0 36 4
47 25 61 14 9 25 22 25 30 0 7 11 16 24 20 15 3 27 16 31 31 7 30 19 22 21
-15 4 -60 -18 -197 -33 -214 -15 -17 -15 -18 5 -18 61 0 122 63 127 131 2 30
13 51 23 45 4 -2 7 12 7 32 1 21 9 52 18 71 11 22 14 38 8 45 -11 12 3 45 14
34 19 -19 36 -319 21 -393 -5 -26 -4 -35 2 -27 7 11 10 9 15 -7 3 -14 0 -21
-9 -21 -8 0 -14 -4 -14 -10 0 -5 4 -10 9 -10 5 0 11 -18 13 -40 2 -22 0 -40
-4 -40 -5 0 -8 -13 -8 -29 0 -16 -6 -34 -14 -40 -11 -9 -12 -20 -5 -44 12 -43
12 -43 -13 -67 -12 -11 -16 -20 -10 -20 9 0 7 -8 -4 -25 -9 -14 -13 -32 -10
-41 3 -9 3 -21 -1 -27 -3 -6 -8 -33 -10 -61 -2 -30 -12 -62 -23 -78 -11 -15
-21 -42 -21 -60 -2 -31 -2 -31 -6 -5 -4 26 -29 34 -27 9 1 -7 2 -32 3 -57 0
-25 6 -45 12 -45 7 0 9 10 5 25 -7 26 0 31 22 16 12 -7 11 -13 -1 -37 -13 -25
-24 -40 -66 -90 -6 -7 -15 -14 -20 -15 -6 -2 -12 -17 -13 -34 -2 -28 -38 -91
-38 -67 0 6 5 14 11 17 6 4 8 13 5 20 -2 7 -2 16 1 19 4 4 8 25 10 49 2 23 9
57 14 75 8 24 8 37 -1 47 -17 20 -30 19 -30 -2 -1 -27 -26 -57 -35 -42 -6 8
-10 7 -17 -5 -5 -9 -6 -22 -1 -29 7 -11 14 -105 16 -202 0 -22 -3 -50 -8 -62
-4 -14 -3 -23 3 -23 6 0 13 9 17 19 3 10 13 22 23 25 9 3 22 9 29 12 7 3 10
-2 6 -15 -3 -12 -12 -21 -20 -21 -10 0 -13 -6 -9 -16 14 -38 17 -91 5 -119
-12 -28 -13 -29 -16 -7 -7 36 -23 25 -22 -15 3 -69 0 -81 -18 -79 -15 1 -18
-7 -19 -41 0 -24 -3 -45 -6 -48 -3 -3 -3 -35 0 -70 3 -42 1 -70 -7 -79 -13
-15 -4 -49 11 -40 5 3 13 17 19 31 6 15 14 22 21 17 7 -4 10 -3 5 1 -4 5 3 19
15 33 17 18 23 37 24 75 3 93 3 95 15 74 6 -10 9 -38 7 -63 -2 -24 0 -44 3
-44 6 0 29 -99 29 -123 0 -5 -7 -6 -16 -3 -12 5 -15 0 -14 -22 1 -15 2 -38 1
-52 -2 -24 -2 -24 -13 -5 -7 11 -18 26 -25 33 -16 16 -17 29 -3 37 6 4 8 11 4
16 -3 5 -17 -7 -30 -26 -13 -20 -21 -41 -18 -47 4 -6 1 -14 -6 -18 -16 -10
-16 -89 -1 -118 8 -16 8 -24 -4 -36 -8 -8 -15 -22 -15 -31 0 -9 -4 -14 -9 -10
-5 3 -7 20 -4 39 4 25 1 35 -12 40 -26 10 -34 -1 -33 -45 0 -33 5 -42 24 -49
26 -10 31 -25 12 -33 -8 -3 2 -18 26 -39 37 -33 39 -37 32 -76 -4 -26 -2 -42
4 -42 5 0 10 -11 10 -24 0 -14 5 -28 10 -31 6 -3 10 -25 10 -48 l0 -42 87 2
c102 3 116 7 109 30 -11 36 7 44 53 26 43 -17 44 -17 61 5 10 11 20 19 23 16
3 -3 25 6 50 20 24 14 51 26 60 26 10 0 17 4 17 9 0 5 14 12 30 16 19 4 30 13
30 24 0 12 14 22 41 31 27 9 49 26 63 47 12 18 33 35 48 38 15 4 30 15 33 26
7 20 25 27 25 8 0 -5 15 2 34 16 43 33 67 92 65 159 -1 28 1 97 3 153 3 56 2
107 -3 114 -4 7 -1 22 7 33 11 18 11 30 -1 77 -13 48 -13 62 -1 90 8 20 11 56
9 89 -2 30 -4 62 -3 70 1 8 1 41 1 72 0 31 4 60 9 63 6 4 7 17 4 30 -7 27 3
65 17 65 10 0 13 -2 70 -50 20 -16 43 -30 51 -30 7 0 40 -27 73 -60 62 -63 95
-82 51 -29 -14 17 -26 35 -26 40 0 5 -5 9 -11 9 -15 0 -39 26 -39 42 0 7 -7
24 -16 36 -9 13 -14 26 -11 28 8 8 146 -95 157 -117 6 -10 15 -19 21 -19 19 0
56 -35 51 -49 -3 -8 0 -11 5 -8 10 7 124 -63 182 -110 80 -67 111 -101 105
-117 -9 -23 -23 -20 -30 8 -6 24 -29 36 -70 36 -24 0 -59 34 -50 49 9 14 -14
25 -46 23 -15 -1 -28 2 -28 7 0 5 -9 9 -19 8 -26 -2 -17 -19 21 -41 97 -58
268 -212 268 -243 0 -20 49 -51 103 -67 85 -24 117 -28 117 -17 0 5 -10 11
-22 13 -16 2 -22 9 -21 23 1 11 -4 23 -10 27 -8 5 -7 9 4 13 11 4 14 15 11 35
-5 37 10 39 39 6 17 -19 24 -22 34 -13 9 8 10 16 4 24 -7 7 -6 14 1 18 7 4 26
-8 46 -29 19 -20 36 -36 39 -35 3 1 19 -4 35 -11 22 -9 32 -9 42 0 7 6 28 20
46 31 18 11 30 24 27 29 -3 6 1 10 9 10 9 0 16 6 16 13 1 6 18 25 39 42 l38
30 -40 39 c-27 26 -37 44 -34 58 4 14 2 17 -7 9 -10 -8 -21 1 -45 34 -18 25
-39 45 -47 45 -8 0 -14 6 -14 14 0 8 -13 23 -30 33 -16 9 -30 21 -30 25 0 4
-8 8 -18 8 -9 0 -26 12 -37 27 -11 15 -30 37 -42 49 -13 12 -23 26 -23 33 0 6
-11 11 -24 11 -14 0 -31 8 -38 18 -12 18 -44 38 -97 62 -18 8 -22 16 -19 35 3
14 2 25 -2 25 -4 0 -23 15 -42 33 -53 49 -115 101 -198 166 -41 32 -101 87
-134 122 -32 35 -67 67 -77 71 -11 4 -19 14 -19 23 0 8 -7 15 -15 15 -8 0 -24
14 -37 30 -12 17 -27 30 -34 30 -6 0 -18 8 -25 17 -12 15 -12 16 4 10 11 -4
16 -3 12 3 -7 12 23 60 39 60 6 0 20 16 30 35 11 19 23 35 28 35 5 0 13 11 18
25 6 16 14 23 25 19 9 -4 15 0 15 9 0 9 9 22 20 30 12 8 18 21 15 29 -4 9 4
21 19 32 15 9 26 25 26 36 0 10 8 25 18 32 9 7 25 24 34 38 8 14 27 39 42 55
14 17 26 33 26 38 0 4 6 7 13 7 6 0 31 25 54 55 24 30 50 55 58 55 17 0 74 59
75 77 0 6 11 20 24 30 13 11 41 46 61 79 21 32 54 81 74 109 22 30 41 71 48
105 21 95 37 150 45 150 5 0 8 8 8 18 0 10 13 33 30 52 16 19 29 43 30 52 0 9
3 18 8 20 15 6 52 61 46 69 -3 5 -2 14 2 21 15 25 14 75 -1 88 -10 8 -51 15
-107 17 -50 1 -96 7 -102 12 -16 14 -77 4 -98 -16 -11 -10 -47 -46 -81 -81
-33 -35 -66 -61 -74 -58 -7 3 -12 2 -11 -2 3 -15 -15 -42 -28 -42 -8 0 -14 -6
-15 -12 0 -7 -27 -35 -61 -63 -33 -27 -68 -61 -76 -75 -9 -14 -22 -31 -31 -37
-13 -12 -13 -13 1 -13 9 0 18 7 22 15 3 8 13 14 23 14 17 -1 17 -2 1 -6 -10
-2 -21 -15 -24 -29 -3 -13 -19 -34 -35 -45 -16 -11 -26 -25 -23 -30 3 -6 -2
-16 -12 -24 -14 -10 -21 -10 -26 -2 -5 8 -8 4 -8 -9 0 -11 -11 -31 -25 -44
-28 -27 -34 -50 -7 -29 9 7 6 1 -7 -13 -13 -15 -28 -25 -34 -21 -6 3 -7 1 -4
-4 4 -6 0 -13 -8 -17 -8 -3 -15 -17 -15 -31 0 -14 -6 -28 -14 -31 -8 -3 -12
-13 -9 -25 3 -10 0 -19 -6 -19 -6 0 -16 -11 -21 -25 -6 -16 -17 -25 -30 -25
-16 0 -20 -5 -16 -17 3 -10 -1 -29 -10 -43 l-14 -25 6 29 c5 21 4 27 -5 22 -6
-4 -11 -13 -11 -19 0 -7 -10 -17 -22 -22 -17 -8 -22 -18 -21 -40 2 -21 -6 -38
-28 -61 -17 -18 -29 -36 -27 -41 2 -4 -13 -25 -34 -46 -21 -20 -38 -34 -38
-30 0 5 -5 1 -11 -7 -8 -12 -9 -9 -5 12 4 17 1 32 -9 42 -8 8 -15 19 -15 24 0
5 -8 16 -17 23 -11 9 -14 10 -9 2 4 -7 2 -23 -5 -35 -11 -20 -14 -33 -18 -78
-1 -10 -4 -11 -11 -4 -8 8 -6 24 4 55 11 32 14 80 13 177 -2 87 1 146 9 170 8
22 10 41 4 51 -5 9 -10 12 -10 6 0 -5 -6 0 -14 11 -15 21 -21 190 -7 212 4 7
6 26 3 42 -3 22 -10 30 -24 30 -15 0 -18 4 -13 18 3 9 9 48 11 87 3 38 6 72 7
75 1 3 -2 7 -8 10 -5 3 -12 -6 -14 -20 -3 -22 -4 -23 -11 -6 -3 11 -3 38 1 60
4 25 3 43 -3 47 -5 4 -8 32 -7 63 3 47 1 56 -13 56 -12 0 -15 6 -11 21 5 17 2
20 -13 15 -17 -5 -19 0 -19 40 -1 35 -6 50 -22 64 -12 10 -19 21 -15 24 3 4
-1 4 -9 1 -12 -5 -18 2 -22 24 -4 18 -13 31 -21 31 -8 0 -17 9 -21 19 -7 22
-45 35 -59 21 -15 -15 -26 -12 -20 5 4 8 2 15 -4 15 -6 0 -12 -5 -14 -11 -3
-8 -14 -7 -39 5 -19 9 -63 17 -98 19 -51 2 -65 0 -74 -14z m1193 -647 c0 -13
-12 -22 -22 -16 -10 6 -1 24 13 24 5 0 9 -4 9 -8z m-1180 -466 c0 -3 -4 -8
-10 -11 -5 -3 -10 -1 -10 4 0 6 5 11 10 11 6 0 10 -2 10 -4z m807 -118 c-3 -8
-6 -5 -6 6 -1 11 2 17 5 13 3 -3 4 -12 1 -19z m-296 -239 c-5 -13 -10 -19 -10
-12 -1 15 10 45 15 40 3 -2 0 -15 -5 -28z m-637 -931 c-6 -10 -4 -10 7 0 7 6
23 12 36 12 l23 0 -25 -47 c-14 -27 -25 -54 -25 -60 0 -7 -6 -13 -14 -13 -24
0 -36 104 -13 113 18 8 19 8 11 -5z m11 -180 c-2 -35 1 -69 7 -75 7 -9 7 -17
1 -25 -6 -7 -9 -38 -7 -70 2 -40 -1 -60 -11 -68 -8 -7 -15 -11 -16 -9 0 2 -1
73 -2 157 -2 136 -1 152 14 152 15 0 17 -9 14 -62z m1393 -56 c15 -13 39 -30
55 -38 15 -8 27 -21 27 -29 0 -8 9 -19 20 -25 11 -6 27 -24 36 -41 15 -29 14
-30 -4 -20 -18 10 -131 105 -182 154 -14 13 -37 27 -52 31 -19 4 -28 13 -28
27 0 19 2 19 50 -8 28 -15 63 -39 78 -51z m178 -186 c18 -19 18 -27 0 -20 -14
5 -31 34 -20 34 3 0 12 -6 20 -14z m-101 -16 c3 -5 1 -10 -4 -10 -6 0 -11 5
-11 10 0 6 2 10 4 10 3 0 8 -4 11 -10z m26 -47 c13 -15 12 -15 -8 -4 -24 12
-29 21 -14 21 5 0 15 -7 22 -17z m142 -17 c-4 -6 -8 -5 -11 2 -2 7 -8 10 -13
6 -5 -3 -9 2 -9 10 0 13 3 14 19 4 11 -7 17 -17 14 -22z m-1743 -297 c0 -11 4
-29 10 -39 7 -13 6 -19 -6 -24 -9 -3 -14 -15 -12 -28 2 -11 -3 -23 -9 -25 -9
-3 -13 6 -13 27 0 18 4 29 10 25 13 -8 13 41 0 66 -8 15 -7 19 5 19 8 0 15 -9
15 -21z m820 -69 c0 -5 -4 -10 -10 -10 -5 0 -10 5 -10 10 0 6 5 10 10 10 6 0
10 -4 10 -10z m-35 -10 c11 -17 -5 -32 -21 -19 -7 6 -11 15 -8 20 7 12 21 11
29 -1z m-715 -185 c8 -9 8 -15 2 -15 -18 0 -42 12 -42 21 0 14 26 10 40 -6z"/>
<path d="M3095 7043 c-11 -2 -40 -9 -65 -16 -25 -6 -47 -12 -50 -12 -20 -2
-50 -29 -50 -44 0 -10 -7 -24 -15 -31 -22 -18 -18 -55 6 -71 17 -12 23 -32 34
-121 7 -59 16 -111 19 -116 3 -6 2 -22 -4 -37 -7 -17 -7 -32 -1 -39 9 -10 23
-194 36 -456 4 -63 15 -187 26 -275 11 -88 22 -175 24 -192 1 -18 8 -54 14
-80 6 -27 18 -94 26 -151 7 -57 19 -110 25 -117 7 -8 10 -18 7 -22 -4 -7 8
-117 18 -168 16 -80 26 -138 45 -260 12 -77 26 -160 31 -185 5 -25 12 -63 14
-85 13 -128 24 -202 36 -235 4 -14 15 -77 24 -140 9 -63 24 -153 35 -200 22
-99 44 -201 46 -215 10 -93 19 -127 50 -188 8 -16 14 -34 14 -41 0 -20 56
-129 79 -153 36 -38 137 -56 160 -29 7 8 20 15 29 15 28 0 53 7 60 17 4 5 16
11 27 12 11 2 26 9 33 14 7 6 15 8 19 5 3 -4 20 3 37 16 16 12 39 23 50 24 11
2 24 7 30 12 6 5 35 11 64 15 64 8 82 15 82 30 0 6 21 23 46 38 45 28 45 28
43 80 -1 30 5 74 15 100 23 64 35 182 27 248 -5 30 -4 70 0 90 4 19 9 58 10
85 1 28 5 66 10 85 4 19 10 58 12 85 3 28 7 57 10 65 6 16 11 50 28 205 6 55
16 113 24 130 7 16 16 59 20 94 3 35 15 91 25 124 11 33 17 64 14 68 -3 5 1
21 9 36 8 15 17 47 20 70 3 23 12 50 21 58 9 9 16 31 16 49 0 17 4 36 10 42 5
5 16 27 23 49 l14 39 12 -65 c20 -100 30 -148 50 -234 11 -44 22 -100 26 -125
3 -25 17 -79 30 -120 13 -41 29 -100 35 -130 6 -30 22 -107 35 -170 36 -177
44 -221 48 -270 2 -25 7 -52 10 -60 3 -8 8 -35 12 -60 3 -25 13 -65 22 -90 9
-25 20 -70 24 -100 14 -94 27 -163 38 -205 5 -22 17 -80 26 -130 25 -138 45
-216 67 -263 16 -33 17 -46 8 -57 -40 -48 112 -132 205 -112 22 4 49 9 60 10
11 0 48 20 82 43 34 23 76 45 95 49 18 4 39 12 45 17 9 7 24 5 49 -7 28 -13
41 -14 66 -6 17 6 44 11 59 11 18 0 32 7 39 20 6 11 17 20 26 20 23 0 27 26 9
54 -21 32 -5 62 25 46 21 -11 30 -4 30 26 0 12 4 24 9 26 5 2 12 98 15 213 6
218 11 293 27 335 4 14 12 79 18 146 5 72 15 135 25 155 8 19 20 77 26 129 6
52 15 112 21 133 6 22 9 76 8 120 -1 70 10 154 38 282 6 28 5 29 -11 12 -10
-9 -19 -17 -20 -17 -9 0 -4 105 4 115 6 7 12 39 14 71 2 33 11 91 19 129 16
72 40 255 36 271 -1 5 7 29 19 54 11 24 19 47 16 51 -9 14 79 480 96 511 6 10
10 39 11 65 0 52 19 150 32 170 4 7 14 43 22 80 7 38 21 95 30 128 17 60 16
78 -6 172 -12 50 -15 53 -63 73 -28 11 -59 25 -69 31 -10 5 -39 9 -65 8 -26
-1 -62 1 -79 5 -20 5 -46 2 -68 -5 -36 -13 -40 -22 -36 -84 2 -50 -10 -60 -62
-46 -25 6 -50 11 -56 11 -22 0 -47 -81 -102 -335 -6 -27 -17 -75 -25 -105 -7
-30 -19 -82 -25 -115 -6 -33 -17 -89 -24 -125 -7 -36 -20 -101 -28 -145 -9
-44 -23 -112 -31 -151 -8 -39 -18 -102 -22 -140 -4 -38 -11 -77 -16 -87 -5
-10 -9 -44 -9 -75 0 -31 -7 -74 -14 -95 -7 -22 -11 -45 -9 -52 3 -7 1 -16 -5
-20 -6 -3 -11 -26 -11 -50 0 -24 -11 -79 -24 -122 -13 -43 -30 -106 -37 -141
-15 -68 -29 -82 -41 -42 -4 14 -16 54 -28 90 -12 36 -26 82 -31 103 -5 21 -20
59 -33 85 -12 26 -35 85 -51 132 -15 47 -33 92 -40 100 -7 8 -18 47 -25 85 -6
39 -16 77 -20 85 -5 8 -19 35 -30 60 -12 25 -29 60 -38 78 -9 19 -17 43 -19
54 -2 12 -12 41 -23 66 -11 24 -20 54 -20 66 0 21 -27 65 -62 99 -22 23 -126
23 -199 0 -30 -9 -60 -18 -67 -19 -7 -1 -36 -14 -63 -29 -40 -20 -58 -25 -82
-19 -18 4 -36 7 -41 5 -6 -1 -24 -4 -41 -5 -48 -4 -55 -12 -44 -46 8 -23 7
-37 -5 -61 -9 -18 -16 -53 -16 -78 0 -25 -7 -73 -15 -106 -14 -58 -40 -223
-50 -316 -7 -66 -33 -159 -50 -176 -8 -8 -15 -23 -15 -33 0 -10 -4 -22 -10
-25 -5 -3 -10 -15 -10 -26 0 -11 -9 -40 -20 -63 -11 -24 -22 -62 -26 -85 -4
-23 -11 -44 -15 -47 -5 -3 -9 -13 -9 -22 0 -9 -7 -30 -15 -46 -8 -15 -15 -41
-15 -57 0 -62 -18 -24 -33 69 -34 205 -46 273 -52 282 -3 5 -8 44 -11 87 -3
43 -9 94 -14 113 -5 19 -12 67 -16 105 -3 39 -9 75 -13 80 -3 6 -7 35 -8 66
-1 31 -9 69 -18 85 -8 16 -15 40 -15 54 0 14 -7 57 -16 95 -23 101 -34 179
-39 270 -3 44 -8 91 -11 105 -3 14 -7 45 -9 70 -14 210 -18 257 -25 270 -4 8
-11 55 -15 104 -3 49 -10 98 -16 107 -5 10 -9 36 -9 59 0 50 -27 100 -53 100
-11 0 -32 11 -49 25 -16 14 -37 25 -47 25 -10 0 -21 3 -25 8 -4 4 -24 9 -44
11 -51 5 -382 8 -407 4z"/>
<path d="M10878 7027 c-10 -8 -15 -16 -12 -19 8 -9 -123 -20 -146 -13 -23 7
-90 -39 -90 -63 0 -8 -7 -24 -17 -34 -15 -17 -15 -19 0 -36 10 -10 17 -27 17
-37 0 -10 14 -40 30 -67 17 -27 27 -54 23 -61 -4 -6 -6 -24 -5 -39 2 -22 -2
-28 -17 -28 -11 0 -23 -5 -27 -12 -4 -7 -3 -8 5 -4 6 4 27 2 46 -5 35 -13 47
-29 21 -29 -7 0 -16 -9 -19 -21 -4 -14 -1 -19 7 -16 9 4 10 -11 5 -62 -4 -36
-12 -77 -17 -91 -6 -16 -6 -35 0 -53 6 -15 8 -37 5 -48 -4 -15 0 -23 14 -26
10 -3 16 -9 14 -14 -3 -4 -12 -6 -20 -2 -11 4 -13 1 -9 -11 4 -9 1 -16 -6 -16
-10 0 -9 -4 1 -16 10 -13 10 -17 -2 -25 -10 -6 -11 -11 -3 -16 12 -8 4 -90
-11 -127 -7 -15 -5 -17 12 -12 17 5 19 2 15 -24 -2 -16 -8 -30 -13 -30 -13 0
-11 -37 2 -46 6 -3 8 -17 5 -30 -4 -13 -3 -24 1 -24 15 0 28 15 28 33 0 9 5
16 10 15 13 -4 7 -236 -7 -261 -11 -21 -28 -13 -28 14 0 26 -14 24 -28 -3 -15
-32 -24 -125 -13 -132 5 -4 11 -1 14 6 2 7 3 1 1 -14 -2 -15 2 -28 11 -31 10
-4 12 -18 8 -49 -8 -61 5 -42 22 33 l15 64 -4 -102 c-3 -59 -12 -117 -21 -138
-19 -46 -19 -44 5 -38 19 5 20 3 9 -21 -10 -21 -10 -29 0 -39 9 -9 14 -9 21 3
8 12 10 11 10 -6 0 -11 -5 -25 -11 -31 -7 -7 -12 -59 -13 -135 -2 -127 7 -198
26 -209 6 -4 7 -12 4 -18 -4 -6 -11 -9 -15 -6 -11 6 -21 -45 -21 -106 0 -29 4
-49 11 -49 7 0 10 -12 7 -30 -4 -26 -2 -29 14 -24 15 4 18 0 18 -25 0 -16 3
-36 6 -44 3 -8 -1 -21 -9 -29 -13 -12 -13 -18 -1 -39 18 -33 17 -56 -3 -68
-17 -9 -17 -12 1 -45 16 -30 17 -40 8 -62 -8 -17 -9 -31 -2 -43 6 -12 6 -31
-1 -55 -10 -36 -29 -50 -29 -21 0 8 -4 15 -10 15 -5 0 -10 -4 -10 -9 0 -13 26
-32 40 -29 7 2 21 -13 32 -32 26 -46 30 -50 58 -55 13 -3 28 -12 33 -21 9 -16
11 -16 23 1 18 24 25 15 40 -42 12 -48 9 -77 -7 -67 -5 3 -6 -2 -3 -10 3 -9
12 -16 19 -16 7 0 15 -7 19 -15 7 -20 -23 -83 -44 -90 -12 -4 -16 -16 -14 -48
3 -59 3 -59 15 -51 6 3 16 0 21 -7 7 -10 8 -6 4 12 -4 18 -1 29 7 32 11 4 13
-7 12 -44 -1 -27 -5 -52 -8 -56 -4 -3 -7 -14 -7 -24 0 -18 43 -35 48 -19 5 15
22 1 22 -17 0 -9 -8 -22 -17 -29 -27 -20 -5 -34 61 -40 45 -3 58 -1 63 11 3 9
-2 22 -13 30 -11 7 -15 17 -10 22 4 4 15 -2 23 -14 13 -20 24 -23 81 -23 36 0
81 -6 100 -12 32 -12 35 -11 58 17 13 17 24 35 24 41 0 8 13 9 43 3 106 -21
177 -6 161 34 -3 8 1 26 9 39 23 36 28 83 12 104 -8 11 -15 38 -15 61 0 24 -9
59 -20 79 -16 28 -18 39 -9 50 9 11 9 17 0 28 -8 9 -8 16 -2 20 17 11 7 109
-25 244 -9 38 -13 80 -9 105 5 31 1 56 -14 95 -15 37 -17 52 -8 52 17 0 13 79
-6 116 -16 31 -13 107 4 130 5 6 39 12 76 13 71 2 179 30 215 55 13 9 32 13
50 9 16 -3 41 0 56 7 15 7 36 16 47 20 175 64 196 74 242 122 21 21 45 38 54
38 22 0 79 47 79 65 0 7 3 15 8 17 9 4 53 74 71 113 7 17 17 37 21 45 4 8 13
40 20 70 7 30 21 68 32 85 10 16 18 38 18 48 0 9 5 17 11 17 6 0 9 6 6 13 -2
6 2 20 10 29 8 9 17 45 20 80 4 37 11 66 19 71 16 9 18 74 4 112 -5 14 -12 36
-14 48 -3 12 -12 47 -21 78 -8 31 -17 78 -20 103 -2 26 -11 57 -20 69 -8 12
-15 31 -15 43 0 22 -48 102 -88 146 -19 20 -23 33 -18 56 6 25 2 33 -29 58
-20 15 -49 51 -65 79 -16 27 -30 44 -30 37 0 -7 -4 -10 -10 -7 -5 3 -10 17
-10 29 0 16 -13 32 -40 51 -22 15 -40 33 -40 40 0 7 -7 18 -15 25 -12 10 -16
9 -21 -4 -3 -9 -12 -16 -19 -16 -17 0 -45 44 -45 70 0 14 -7 20 -22 20 -13 0
-36 12 -53 26 -25 21 -86 54 -101 54 -2 0 -4 -7 -4 -15 0 -10 -7 -7 -26 10
-14 13 -51 31 -82 40 -31 9 -70 21 -87 27 -33 11 -165 29 -174 24 -3 -2 -32
-7 -64 -10 -63 -7 -127 13 -127 40 0 7 -8 18 -19 23 -10 6 -22 22 -25 36 -4
14 -12 25 -18 25 -6 0 -19 6 -27 13 -24 21 -128 45 -196 46 -33 0 -76 3 -95 6
-22 3 -42 0 -52 -8z m628 -456 c5 -4 32 -14 59 -20 63 -16 111 -52 120 -90 3
-16 13 -35 21 -42 8 -6 14 -17 14 -23 1 -16 32 -51 53 -59 11 -4 21 -16 24
-27 3 -11 9 -17 14 -14 15 9 21 -23 9 -45 -6 -13 -21 -21 -35 -21 -40 0 -28
-17 16 -23 22 -3 43 -7 45 -10 3 -2 4 -31 3 -63 0 -33 -1 -74 -2 -93 0 -19 5
-37 10 -38 8 -3 8 -14 3 -34 -7 -25 -6 -29 8 -27 12 2 17 -6 18 -35 2 -37 -12
-60 -38 -69 -10 -4 -10 -8 1 -21 7 -9 17 -14 22 -11 12 7 11 -33 -1 -75 -6
-23 -6 -40 2 -54 8 -16 8 -22 -1 -25 -17 -6 -43 -34 -37 -40 3 -3 14 3 25 12
21 19 35 9 20 -14 -5 -8 -9 -36 -9 -62 0 -65 -19 -148 -35 -155 -8 -2 -11 -11
-8 -18 6 -18 -27 -75 -44 -75 -7 0 -13 -9 -13 -20 0 -11 -7 -20 -15 -20 -14 0
-19 -12 -16 -32 0 -5 -6 -8 -14 -8 -8 0 -19 -10 -26 -22 -14 -29 -68 -78 -85
-78 -7 0 -26 -12 -43 -26 -17 -14 -31 -21 -31 -15 0 5 5 13 10 16 6 3 10 11
10 18 0 15 -60 -50 -60 -66 -1 -7 -7 3 -16 22 -11 26 -14 64 -11 153 2 65 1
120 -1 123 -3 2 -6 24 -7 47 -1 24 -6 71 -10 105 -5 41 -4 77 4 106 7 24 13
59 14 77 2 27 7 35 25 40 26 6 47 57 97 245 15 55 33 104 40 110 7 5 15 29 19
52 5 35 3 44 -13 53 -16 8 -22 6 -30 -7 -9 -16 -12 -16 -20 -3 -6 8 -8 24 -5
35 7 30 7 55 -1 100 -3 22 -6 48 -6 57 0 9 -7 22 -15 29 -18 14 -61 -11 -73
-44 -8 -21 -8 -21 -14 -2 -10 32 -9 177 1 228 3 10 16 9 28 -2z m234 -141 c0
-5 -7 -10 -16 -10 -8 0 -12 5 -9 10 3 6 10 10 16 10 5 0 9 -4 9 -10z m-1003
-1192 c-3 -8 -6 -5 -6 6 -1 11 2 17 5 13 3 -3 4 -12 1 -19z m94 -51 c-10 -9
-11 -8 -5 6 3 10 9 15 12 12 3 -3 0 -11 -7 -18z m15 -70 c18 7 18 -7 -2 -35
-8 -12 -13 -22 -10 -22 3 0 -2 -21 -10 -47 -9 -27 -17 -66 -19 -88 -5 -71 -8
-71 -15 -5 -6 52 -4 76 11 122 10 32 19 65 20 75 0 10 3 13 5 6 3 -7 12 -9 20
-6z m-16 -312 c0 -17 -2 -17 -10 -5 -5 8 -10 24 -10 35 0 17 2 17 10 5 5 -8
10 -24 10 -35z m-26 -6 c-2 -4 -1 -10 4 -13 16 -9 0 -76 -25 -102 -13 -14 -22
-33 -19 -41 3 -8 1 -11 -4 -8 -13 8 -4 79 10 83 5 2 10 19 10 38 0 21 -4 33
-10 29 -16 -10 -12 7 7 27 12 14 18 15 24 6 4 -7 6 -15 3 -19z m116 -559 c0
-34 -14 -39 -29 -12 -7 13 -6 23 1 30 19 19 28 14 28 -18z m0 -120 c0 -5 -4
-10 -10 -10 -5 0 -10 5 -10 10 0 6 5 10 10 10 6 0 10 -4 10 -10z m127 -372
c-3 -8 -6 -5 -6 6 -1 11 2 17 5 13 3 -3 4 -12 1 -19z"/>
<path d="M11762 6180 c0 -14 2 -19 5 -12 2 6 2 18 0 25 -3 6 -5 1 -5 -13z"/>
<path d="M11811 5854 c0 -11 3 -14 6 -6 3 7 2 16 -1 19 -3 4 -6 -2 -5 -13z"/>
<path d="M14940 6884 c-11 -13 -7 -18 13 -15 4 0 7 -3 7 -9 0 -5 -7 -10 -15
-10 -19 0 -19 -11 0 -36 14 -18 14 -18 15 8 0 15 5 30 10 33 15 9 12 32 -4 38
-8 3 -20 -1 -26 -9z"/>
<path d="M14995 6860 c0 -17 6 -34 13 -39 11 -7 11 -9 -1 -14 -7 -3 -22 -21
-31 -41 -11 -23 -24 -36 -36 -36 -11 0 -20 -5 -20 -10 0 -6 -11 -15 -25 -20
-24 -9 -29 -19 -26 -47 2 -15 -38 -43 -62 -43 -15 0 -16 3 -7 21 7 11 8 24 4
27 -4 4 -9 0 -12 -8 -3 -8 -17 -27 -32 -42 l-27 -27 48 6 c27 3 49 3 49 -1 0
-4 -6 -22 -14 -41 -9 -20 -11 -35 -5 -37 10 -3 0 -36 -21 -68 -5 -8 -25 -42
-44 -75 -40 -71 -91 -129 -104 -121 -5 3 -7 18 -5 33 4 27 4 27 -11 9 -9 -11
-16 -38 -17 -60 -1 -65 -7 -99 -20 -106 -6 -5 -8 -17 -5 -31 7 -24 7 -24 -9
-4 -16 19 -17 18 -10 -20 12 -74 9 -115 -8 -128 -16 -12 -25 -39 -26 -85 -1
-17 -9 -24 -30 -28 -34 -7 -44 -25 -35 -60 5 -20 9 -22 20 -13 8 7 14 7 14 1
0 -5 -7 -15 -15 -22 -8 -7 -15 -20 -15 -29 -1 -19 -23 -51 -36 -51 -5 0 -10
-10 -11 -22 -2 -42 -21 -160 -26 -164 -2 -3 -16 0 -31 5 -25 10 -26 9 -26 -24
0 -28 -5 -37 -24 -45 -31 -11 -41 -27 -26 -45 8 -9 8 -15 0 -20 -6 -4 -7 -12
-1 -23 5 -9 5 -23 0 -31 -36 -67 -42 -93 -30 -126 7 -21 8 -41 3 -56 -24 -62
-34 -103 -26 -106 5 -2 8 -42 8 -89 -1 -69 1 -84 12 -80 8 3 14 -1 14 -10 0
-8 -6 -17 -13 -20 -19 -7 -10 -97 14 -148 11 -22 19 -61 19 -87 0 -25 7 -66
15 -90 9 -24 14 -48 11 -55 -2 -6 2 -21 10 -32 8 -11 11 -27 8 -36 -3 -9 -1
-16 5 -16 6 0 20 -21 32 -47 11 -27 25 -56 30 -65 12 -23 11 -28 -2 -28 -7 0
-18 -8 -26 -17 -8 -10 -11 -12 -7 -4 5 9 3 12 -4 7 -16 -10 -15 -33 2 -39 15
-6 28 -59 20 -82 -4 -8 -13 -15 -22 -15 -9 0 1 -14 25 -35 23 -19 55 -58 72
-85 17 -28 41 -55 54 -61 12 -6 38 -34 57 -62 19 -29 43 -62 53 -74 13 -15 17
-28 12 -45 -7 -21 -6 -22 9 -9 15 13 19 13 27 0 13 -21 11 -29 -6 -23 -17 7
-21 -11 -5 -21 6 -3 10 -14 10 -23 0 -10 13 -22 30 -29 16 -6 38 -25 48 -43
19 -31 57 -63 77 -66 5 0 16 -2 23 -2 6 -1 12 -9 12 -17 0 -8 5 -15 10 -15 6
0 10 -6 11 -12 0 -20 74 -75 122 -91 81 -29 146 -47 169 -47 13 0 28 -4 34
-10 12 -12 255 -38 315 -33 24 2 87 8 139 13 52 6 104 11 115 12 39 2 249 59
350 94 23 8 47 14 55 14 8 0 26 9 40 20 26 20 66 28 55 10 -14 -23 18 -7 42
20 13 17 33 30 42 30 22 0 71 44 71 64 0 8 5 18 11 22 8 4 9 0 4 -15 -5 -15
-2 -21 9 -21 13 0 23 23 14 33 -2 1 8 17 21 35 14 21 21 41 18 54 -3 12 -1 30
4 40 7 14 7 23 -1 33 -9 11 -6 19 13 39 31 31 70 86 62 86 -4 0 0 12 10 26 9
14 15 38 13 54 -1 17 5 36 16 48 11 13 15 28 11 40 -3 11 -1 23 5 27 13 8 -14
61 -40 75 -14 7 -31 6 -62 -4 -76 -25 -161 -39 -253 -41 -50 -1 -100 -7 -112
-13 -12 -7 -32 -12 -44 -12 -12 0 -37 -14 -56 -30 -18 -17 -38 -30 -43 -30
-11 0 -79 -43 -101 -65 -9 -8 -22 -15 -31 -15 -8 0 -44 -19 -79 -42 -35 -23
-71 -43 -79 -44 -9 0 -33 -9 -54 -19 -22 -11 -55 -19 -75 -19 -20 -1 -41 -4
-46 -8 -17 -11 -144 51 -176 85 -15 18 -29 37 -29 43 0 7 -16 35 -35 63 -19
28 -35 52 -34 53 2 8 -22 59 -48 103 -17 28 -33 67 -37 87 -3 20 -13 42 -22
49 -8 7 -14 22 -13 33 2 22 -4 55 -23 119 -8 27 -8 41 -1 48 16 16 -9 148 -36
194 -12 21 -10 46 4 51 12 5 14 24 11 98 -2 50 -8 102 -13 116 -11 28 -9 63 7
130 6 24 8 56 5 70 -4 13 -9 53 -11 87 -4 53 -2 63 11 63 9 0 18 8 21 18 4 9
13 32 21 51 8 18 22 70 30 115 9 44 20 90 26 101 14 27 21 69 21 133 1 49 3
53 34 68 19 9 32 18 29 20 -7 7 32 106 50 126 16 18 46 146 38 166 -2 7 3 12
14 12 17 0 55 43 56 63 0 4 7 12 15 17 8 5 11 10 7 10 -4 0 4 17 18 37 14 21
25 44 25 52 0 8 11 28 23 45 13 17 39 58 57 91 18 33 40 66 49 73 9 7 27 22
40 34 21 17 38 21 96 21 46 0 83 -5 104 -16 17 -9 38 -14 45 -11 8 3 29 -1 48
-9 38 -16 115 -19 124 -5 3 5 12 4 20 -3 11 -9 17 -9 29 1 8 7 22 9 31 6 21
-8 74 24 74 44 0 9 5 21 11 27 14 14 1 83 -17 90 -8 3 -14 11 -14 17 0 12 -25
28 -63 40 -9 3 -21 14 -25 23 -4 11 -19 19 -37 20 -79 6 -236 41 -285 64 -82
39 -120 52 -127 45 -3 -3 -11 -2 -17 3 -6 5 -44 12 -85 15 -41 4 -79 10 -85
13 -6 4 -95 8 -198 9 -103 2 -203 7 -223 13 -25 7 -45 7 -63 0 -18 -7 -28 -7
-30 0 -7 22 -17 10 -17 -19z m-135 -324 c0 -2 -7 -6 -15 -10 -8 -3 -15 -1 -15
4 0 6 7 10 15 10 8 0 15 -2 15 -4z m-305 -2636 c0 -7 -6 -15 -12 -17 -8 -3
-13 4 -13 17 0 13 5 20 13 18 6 -3 12 -11 12 -18z"/>
<path d="M14880 6870 c-13 -8 -13 -10 2 -10 9 0 20 5 23 10 8 13 -5 13 -25 0z"/>
<path d="M14775 6751 c-3 -5 -1 -12 5 -16 5 -3 10 1 10 9 0 18 -6 21 -15 7z"/>
<path d="M14836 6713 l-19 -25 24 7 c26 7 52 35 43 44 -3 3 -9 -1 -13 -8 -5
-8 -10 -9 -12 -3 -2 6 -12 -1 -23 -15z"/>
<path d="M6807 6521 c-20 -12 -52 -23 -69 -25 -19 -2 -41 -14 -54 -30 -13 -14
-30 -26 -39 -26 -24 0 -30 -28 -10 -50 15 -16 18 -37 18 -109 -1 -50 -4 -94
-7 -99 -3 -5 -8 -69 -12 -143 -3 -74 -9 -163 -13 -199 -5 -43 -4 -71 3 -82 8
-13 8 -23 -1 -38 -8 -11 -11 -40 -9 -70 3 -27 1 -52 -4 -55 -13 -8 -9 -66 4
-62 6 3 10 10 9 16 -2 6 1 11 5 11 5 0 9 -30 9 -67 0 -62 -4 -64 -21 -10 -3 9
-9 17 -14 17 -13 0 -2 -50 16 -78 18 -28 20 -96 3 -116 -10 -12 -9 -22 4 -50
10 -21 14 -44 10 -57 -4 -12 -7 -51 -7 -87 0 -35 -3 -75 -8 -88 -6 -14 -6 -26
0 -29 5 -3 9 -27 8 -53 0 -27 3 -73 7 -103 6 -50 -12 -195 -30 -241 -5 -13 -2
-18 10 -18 14 0 15 -9 9 -72 -3 -40 -11 -81 -15 -90 -12 -23 -11 -41 1 -33 17
11 11 -7 -7 -21 -17 -12 -17 -14 1 -27 17 -12 18 -22 12 -76 -4 -35 -12 -74
-19 -88 -8 -19 -8 -26 2 -33 11 -6 11 -8 0 -12 -11 -4 -11 -11 0 -45 12 -36
11 -43 -5 -67 -12 -19 -14 -30 -7 -34 6 -4 11 -18 11 -32 -1 -14 2 -54 6 -90
4 -36 8 -72 8 -80 0 -23 20 -72 40 -100 12 -15 17 -33 13 -48 -3 -13 -2 -21 3
-18 13 8 27 -11 41 -56 7 -20 25 -55 41 -77 19 -26 27 -47 23 -58 -5 -14 -4
-16 8 -8 20 15 66 18 74 6 10 -17 137 -14 162 4 20 14 23 14 32 -2 10 -17 12
-17 25 1 8 10 35 22 60 27 25 5 71 20 101 34 30 15 59 23 65 20 6 -3 20 -3 31
0 15 5 19 13 16 27 -5 19 -5 19 14 2 23 -21 32 -14 34 28 0 18 13 54 28 79 15
25 27 54 27 63 0 10 11 27 24 37 23 18 24 21 9 50 -14 27 -14 31 1 42 9 7 20
27 25 45 8 28 7 36 -11 54 -15 15 -17 22 -8 28 14 9 8 46 -7 43 -15 -3 -47
101 -39 123 4 10 2 21 -5 24 -15 10 -19 136 -6 182 6 24 7 42 0 50 -12 17 -9
223 5 316 9 53 9 87 1 124 -8 37 -8 52 0 57 6 4 11 23 10 42 0 19 4 67 8 106
5 41 5 74 0 76 -8 2 -10 46 -6 107 3 43 -20 237 -35 298 -8 31 -15 68 -15 82
-1 36 -5 67 -20 133 -7 33 -11 96 -8 150 2 60 -1 109 -10 140 -8 26 -11 52 -8
58 4 5 2 15 -3 22 -17 22 -34 154 -21 163 4 2 8 17 7 32 0 15 2 48 5 74 6 49
-8 78 -38 78 -7 0 -15 9 -18 20 -6 23 -43 39 -101 45 -23 2 -79 9 -126 15
-183 23 -212 23 -253 1z"/>
<path d="M13177 6521 c-20 -12 -52 -23 -69 -25 -19 -2 -41 -14 -54 -30 -13
-14 -30 -26 -39 -26 -24 0 -30 -28 -10 -50 15 -16 18 -37 18 -109 -1 -50 -4
-94 -7 -99 -3 -5 -8 -69 -12 -143 -3 -74 -9 -163 -13 -199 -5 -43 -4 -71 3
-82 8 -13 8 -23 -1 -38 -8 -11 -11 -40 -9 -70 3 -27 1 -52 -4 -55 -13 -8 -9
-66 4 -62 6 3 10 10 9 16 -2 6 1 11 5 11 5 0 9 -30 9 -67 0 -62 -4 -64 -21
-10 -3 9 -9 17 -14 17 -13 0 -2 -50 16 -78 18 -28 20 -96 3 -116 -10 -12 -9
-22 4 -50 10 -21 14 -44 10 -57 -4 -12 -7 -51 -7 -87 0 -35 -3 -75 -8 -88 -6
-14 -6 -26 0 -29 5 -3 9 -27 8 -53 0 -27 3 -73 7 -103 6 -50 -12 -195 -30
-241 -5 -13 -2 -18 10 -18 14 0 15 -9 9 -72 -3 -40 -11 -81 -15 -90 -12 -23
-11 -41 1 -33 17 11 11 -7 -7 -21 -17 -12 -17 -14 1 -27 17 -12 18 -22 12 -76
-4 -35 -12 -74 -19 -88 -8 -19 -8 -26 2 -33 11 -6 11 -8 0 -12 -11 -4 -11 -11
0 -45 12 -36 11 -43 -5 -67 -12 -19 -14 -30 -7 -34 6 -4 11 -18 11 -32 -1 -14
2 -54 6 -90 4 -36 8 -72 8 -80 0 -23 20 -72 40 -100 12 -15 17 -33 13 -48 -3
-13 -2 -21 3 -18 13 8 27 -11 41 -56 7 -20 25 -55 41 -77 19 -26 27 -47 23
-58 -5 -14 -4 -16 8 -8 20 15 66 18 74 6 10 -17 137 -14 162 4 20 14 23 14 32
-2 10 -17 12 -17 25 1 8 10 35 22 60 27 25 5 71 20 101 34 30 15 59 23 65 20
6 -3 20 -3 31 0 15 5 19 13 16 27 -5 19 -5 19 14 2 23 -21 32 -14 34 28 0 18
13 54 28 79 15 25 27 54 27 63 0 10 11 27 24 37 23 18 24 21 9 50 -14 27 -14
31 1 42 9 7 20 27 25 45 8 28 7 36 -11 54 -15 15 -17 22 -8 28 14 9 8 46 -7
43 -15 -3 -47 101 -39 123 4 10 2 21 -5 24 -15 10 -19 136 -6 182 6 24 7 42 0
50 -12 17 -9 223 5 316 9 53 9 87 1 124 -8 37 -8 52 0 57 6 4 11 23 10 42 0
19 4 67 8 106 5 41 5 74 0 76 -8 2 -10 46 -6 107 3 43 -20 237 -35 298 -8 31
-15 68 -15 82 -1 36 -5 67 -20 133 -7 33 -11 96 -8 150 2 60 -1 109 -10 140
-8 26 -11 52 -8 58 4 5 2 15 -3 22 -17 22 -34 154 -21 163 4 2 8 17 7 32 0 15
2 48 5 74 6 49 -8 78 -38 78 -7 0 -15 9 -18 20 -6 23 -43 39 -101 45 -23 2
-79 9 -126 15 -183 23 -212 23 -253 1z"/>
<path d="M14657 6472 c-2 -9 -8 -26 -13 -37 -7 -20 -7 -20 14 -1 23 20 28 41
13 50 -5 3 -11 -2 -14 -12z"/>
<path d="M14622 6380 c0 -14 2 -19 5 -12 2 6 2 18 0 25 -3 6 -5 1 -5 -13z"/>
<path d="M14695 6350 c-3 -5 -1 -10 4 -10 6 0 11 5 11 10 0 6 -2 10 -4 10 -3
0 -8 -4 -11 -10z"/>
<path d="M14506 6181 c-4 -7 -5 -15 -2 -18 9 -9 19 4 14 18 -4 11 -6 11 -12 0z"/>
<path d="M14564 6168 c-4 -13 -12 -26 -18 -30 -8 -6 -8 -8 0 -8 16 0 46 48 35
55 -5 3 -13 -5 -17 -17z"/>
<path d="M192 6105 c-1 -16 -5 -41 -8 -55 -5 -19 -4 -22 5 -14 7 7 11 29 8 55
-2 30 -4 34 -5 14z"/>
<path d="M7872 6105 c-1 -16 -5 -41 -8 -55 -5 -19 -4 -22 5 -14 7 7 11 29 8
55 -2 30 -4 34 -5 14z"/>
<path d="M14467 6091 c-4 -17 -3 -21 5 -13 5 5 8 16 6 23 -3 8 -7 3 -11 -10z"/>
<path d="M10652 5989 c-7 -12 -11 -24 -7 -27 7 -8 25 17 25 36 0 17 -3 15 -18
-9z"/>
<path d="M14370 5856 c-6 -16 -13 -34 -17 -40 -4 -6 4 -2 18 9 13 11 26 21 27
22 2 1 -1 10 -6 20 -10 16 -12 15 -22 -11z"/>
<path d="M14430 5840 c0 -5 5 -10 11 -10 5 0 7 5 4 10 -3 6 -8 10 -11 10 -2 0
-4 -4 -4 -10z"/>
<path d="M235 5818 c-9 -37 -11 -199 -3 -205 5 -2 5 -16 2 -30 -5 -18 -3 -24
5 -19 17 11 14 -19 -4 -34 -15 -13 -22 -90 -7 -90 15 0 34 62 33 112 -3 196
-5 228 -13 228 -5 0 -4 9 2 19 13 25 13 41 0 41 -5 0 -12 -10 -15 -22z"/>
<path d="M7915 5818 c-9 -37 -11 -199 -3 -205 5 -2 5 -16 2 -30 -5 -18 -3 -24
5 -19 17 11 14 -19 -4 -34 -15 -13 -22 -90 -7 -90 15 0 34 62 33 112 -3 196
-5 228 -13 228 -5 0 -4 9 2 19 13 25 13 41 0 41 -5 0 -12 -10 -15 -22z"/>
<path d="M10670 5784 c0 -8 5 -12 10 -9 6 4 8 11 5 16 -9 14 -15 11 -15 -7z"/>
<path d="M14346 5785 c-3 -8 -1 -15 4 -15 6 0 10 7 10 15 0 8 -2 15 -4 15 -2
0 -6 -7 -10 -15z"/>
<path d="M10671 5744 c0 -11 3 -14 6 -6 3 7 2 16 -1 19 -3 4 -6 -2 -5 -13z"/>
<path d="M530 5685 c-4 -31 -5 -85 -3 -85 12 0 20 42 13 70 -5 22 -9 28 -10
15z"/>
<path d="M8210 5685 c-4 -31 -5 -85 -3 -85 12 0 20 42 13 70 -5 22 -9 28 -10
15z"/>
<path d="M14362 5663 c-7 -13 -8 -24 -2 -28 5 -3 7 -13 4 -23 -5 -15 -4 -15 6
1 6 10 10 30 8 45 -3 27 -3 27 -16 5z"/>
<path d="M265 5630 c-3 -5 1 -10 10 -10 9 0 13 5 10 10 -3 6 -8 10 -10 10 -2
0 -7 -4 -10 -10z"/>
<path d="M7945 5630 c-3 -5 1 -10 10 -10 9 0 13 5 10 10 -3 6 -8 10 -10 10 -2
0 -7 -4 -10 -10z"/>
<path d="M14367 5583 c-27 -28 -66 -36 -79 -18 -4 5 -10 1 -14 -9 -5 -13 -1
-24 14 -37 25 -20 61 -15 69 10 3 9 15 26 26 38 29 33 16 47 -16 16z"/>
<path d="M14245 5417 c-4 -10 -5 -21 -1 -24 10 -10 18 4 13 24 -4 17 -4 17
-12 0z"/>
<path d="M10654 5402 c-17 -12 -24 -40 -15 -64 9 -23 9 -22 20 6 14 35 11 69
-5 58z"/>
<path d="M236 5383 c-4 -9 -2 -21 4 -27 7 -7 10 -2 10 17 0 31 -5 34 -14 10z"/>
<path d="M6605 5390 c4 -6 11 -8 16 -5 14 9 11 15 -7 15 -8 0 -12 -5 -9 -10z"/>
<path d="M7916 5383 c-4 -9 -2 -21 4 -27 7 -7 10 -2 10 17 0 31 -5 34 -14 10z"/>
<path d="M12975 5390 c4 -6 11 -8 16 -5 14 9 11 15 -7 15 -8 0 -12 -5 -9 -10z"/>
<path d="M6590 5334 c0 -14 4 -23 10 -19 6 3 10 15 10 26 0 10 -4 19 -10 19
-5 0 -10 -12 -10 -26z"/>
<path d="M12960 5334 c0 -14 4 -23 10 -19 6 3 10 15 10 26 0 10 -4 19 -10 19
-5 0 -10 -12 -10 -26z"/>
<path d="M14246 5335 c4 -8 8 -15 10 -15 2 0 4 7 4 15 0 8 -4 15 -10 15 -5 0
-7 -7 -4 -15z"/>
<path d="M233 5333 c-7 -2 -13 -19 -13 -36 0 -24 -3 -28 -10 -17 -8 13 -10 13
-10 -1 0 -14 19 -29 36 -29 2 0 1 12 -2 27 -6 21 -4 25 8 20 12 -4 15 1 14 19
-1 25 -2 26 -23 17z"/>
<path d="M7913 5333 c-7 -2 -13 -19 -13 -36 0 -24 -3 -28 -10 -17 -8 13 -10
13 -10 -1 0 -14 19 -29 36 -29 2 0 1 12 -2 27 -6 21 -4 25 8 20 12 -4 15 1 14
19 -1 25 -2 26 -23 17z"/>
<path d="M14235 5281 c-3 -5 -1 -12 5 -16 5 -3 10 1 10 9 0 18 -6 21 -15 7z"/>
<path d="M10655 5250 c-3 -5 -1 -10 4 -10 6 0 11 5 11 10 0 6 -2 10 -4 10 -3
0 -8 -4 -11 -10z"/>
<path d="M226 5198 c1 -24 -4 -56 -11 -71 -11 -21 -11 -34 -3 -52 10 -23 28
-25 28 -4 0 6 -4 7 -10 4 -13 -8 -13 1 2 42 7 18 19 33 28 34 10 0 11 2 3 6
-9 3 -10 10 -4 21 11 21 -4 62 -22 62 -9 0 -12 -12 -11 -42z"/>
<path d="M7906 5198 c1 -24 -4 -56 -11 -71 -11 -21 -11 -34 -3 -52 10 -23 28
-25 28 -4 0 6 -4 7 -10 4 -13 -8 -13 1 2 42 7 18 19 33 28 34 10 0 11 2 3 6
-9 3 -10 10 -4 21 11 21 -4 62 -22 62 -9 0 -12 -12 -11 -42z"/>
<path d="M6597 5197 c-4 -10 -7 -26 -7 -35 1 -15 2 -15 11 1 6 10 9 25 7 35
-3 16 -4 15 -11 -1z"/>
<path d="M12967 5197 c-4 -10 -7 -26 -7 -35 1 -15 2 -15 11 1 6 10 9 25 7 35
-3 16 -4 15 -11 -1z"/>
<path d="M435 5189 c-10 -15 3 -25 16 -12 7 7 7 13 1 17 -6 3 -14 1 -17 -5z"/>
<path d="M8115 5189 c-10 -15 3 -25 16 -12 7 7 7 13 1 17 -6 3 -14 1 -17 -5z"/>
<path d="M10602 5168 c-7 -15 -8 -37 -3 -63 5 -22 10 -33 11 -25 4 25 9 110 6
110 -1 0 -8 -10 -14 -22z"/>
<path d="M10630 5150 c0 -5 5 -10 11 -10 5 0 7 5 4 10 -3 6 -8 10 -11 10 -2 0
-4 -4 -4 -10z"/>
<path d="M10640 5103 c0 -5 5 -15 10 -23 8 -12 10 -11 10 8 0 12 -4 22 -10 22
-5 0 -10 -3 -10 -7z"/>
<path d="M326 5075 c4 -8 8 -15 10 -15 2 0 4 7 4 15 0 8 -4 15 -10 15 -5 0 -7
-7 -4 -15z"/>
<path d="M8006 5075 c4 -8 8 -15 10 -15 2 0 4 7 4 15 0 8 -4 15 -10 15 -5 0
-7 -7 -4 -15z"/>
<path d="M465 5008 c0 -43 4 -63 14 -66 8 -3 11 0 7 7 -11 16 3 51 20 51 8 0
14 9 14 20 0 25 -20 27 -21 3 -1 -10 -4 -5 -8 11 -11 53 -26 38 -26 -26z"/>
<path d="M8145 5008 c0 -43 4 -63 14 -66 8 -3 11 0 7 7 -11 16 3 51 20 51 8 0
14 9 14 20 0 25 -20 27 -21 3 -1 -10 -4 -5 -8 11 -11 53 -26 38 -26 -26z"/>
<path d="M10647 5002 c3 -12 1 -28 -4 -35 -6 -6 -6 -23 -2 -37 4 -14 7 -19 8
-12 1 7 8 20 16 28 19 20 19 24 -5 54 -19 24 -19 24 -13 2z"/>
<path d="M187 4933 c-11 -10 -8 -43 3 -43 6 0 10 11 10 25 0 26 -2 29 -13 18z"/>
<path d="M231 4918 c-7 -19 -9 -188 -2 -238 3 -21 31 47 31 75 0 13 7 26 15
29 12 4 14 10 5 25 -5 11 -10 35 -10 53 0 43 -10 78 -21 78 -5 0 -13 -10 -18
-22z"/>
<path d="M420 4926 c0 -9 5 -16 10 -16 6 0 10 4 10 9 0 6 -4 13 -10 16 -5 3
-10 -1 -10 -9z"/>
<path d="M7867 4933 c-11 -10 -8 -43 3 -43 6 0 10 11 10 25 0 26 -2 29 -13 18z"/>
<path d="M7911 4918 c-7 -19 -9 -188 -2 -238 3 -21 31 47 31 75 0 13 7 26 15
29 12 4 14 10 5 25 -5 11 -10 35 -10 53 0 43 -10 78 -21 78 -5 0 -13 -10 -18
-22z"/>
<path d="M8100 4926 c0 -9 5 -16 10 -16 6 0 10 4 10 9 0 6 -4 13 -10 16 -5 3
-10 -1 -10 -9z"/>
<path d="M421 4874 c0 -11 3 -14 6 -6 3 7 2 16 -1 19 -3 4 -6 -2 -5 -13z"/>
<path d="M8101 4874 c0 -11 3 -14 6 -6 3 7 2 16 -1 19 -3 4 -6 -2 -5 -13z"/>
<path d="M10626 4794 c-10 -25 -7 -34 9 -28 8 4 15 15 15 25 0 23 -16 25 -24
3z"/>
<path d="M10672 4779 c3 -8 -2 -19 -10 -25 -8 -6 -12 -20 -9 -35 l4 -24 8 23
c4 12 11 22 16 22 13 0 11 38 -2 46 -7 4 -10 1 -7 -7z"/>
<path d="M10660 4690 c-12 -7 -12 -12 -3 -21 10 -10 14 -9 19 5 8 22 2 27 -16
16z"/>
<path d="M233 4608 c-11 -15 -11 -124 0 -134 13 -14 7 -75 -9 -92 -14 -13 -14
-17 -2 -26 17 -12 29 -64 18 -71 -5 -3 -3 -16 3 -29 14 -28 47 -42 47 -20 0 8
7 26 16 40 17 24 17 24 -10 15 -23 -10 -26 -8 -26 13 0 12 3 26 7 29 10 10 12
118 2 111 -5 -3 -9 0 -9 5 0 18 5 26 13 23 5 -1 6 2 2 8 -3 5 -13 10 -21 10
-18 0 -18 10 0 45 9 17 16 22 19 13 3 -7 6 -1 6 15 1 32 -5 33 -32 10 -20 -18
-20 -17 -14 15 7 35 5 39 -10 20z"/>
<path d="M7913 4608 c-11 -15 -11 -124 0 -134 13 -14 7 -75 -9 -92 -14 -13
-14 -17 -2 -26 17 -12 29 -64 18 -71 -5 -3 -3 -16 3 -29 14 -28 47 -42 47 -20
0 8 7 26 16 40 17 24 17 24 -10 15 -23 -10 -26 -8 -26 13 0 12 3 26 7 29 10
10 12 118 2 111 -5 -3 -9 0 -9 5 0 18 5 26 13 23 5 -1 6 2 2 8 -3 5 -13 10
-21 10 -18 0 -18 10 0 45 9 17 16 22 19 13 3 -7 6 -1 6 15 1 32 -5 33 -32 10
-20 -18 -20 -17 -14 15 7 35 5 39 -10 20z"/>
<path d="M10645 4559 c1 -16 7 -35 14 -42 6 -6 11 -18 11 -26 0 -23 11 -5 14
23 2 14 -3 27 -10 30 -8 3 -14 12 -14 20 0 8 -4 17 -9 20 -5 3 -8 -8 -6 -25z"/>
<path d="M10730 4510 c0 -5 5 -10 10 -10 6 0 10 5 10 10 0 6 -4 10 -10 10 -5
0 -10 -4 -10 -10z"/>
<path d="M10723 4429 c-12 -4 -26 -16 -31 -26 -6 -10 -14 -17 -19 -16 -4 1 -7
-9 -6 -22 1 -15 -3 -22 -10 -19 -12 4 -16 -44 -5 -62 3 -5 6 -25 6 -46 0 -20
5 -44 12 -55 10 -15 10 -14 6 12 l-6 30 15 -25 c15 -23 16 -20 10 55 -4 56 -3
76 4 65 9 -13 11 -12 11 3 0 10 4 16 8 13 4 -3 9 11 9 30 1 19 7 41 13 50 16
19 10 24 -17 13z m-46 -161 c-3 -8 -6 -5 -6 6 -1 11 2 17 5 13 3 -3 4 -12 1
-19z"/>
<path d="M1615 4420 c3 -5 8 -10 11 -10 2 0 4 5 4 10 0 6 -5 10 -11 10 -5 0
-7 -4 -4 -10z"/>
<path d="M9295 4420 c3 -5 8 -10 11 -10 2 0 4 5 4 10 0 6 -5 10 -11 10 -5 0
-7 -4 -4 -10z"/>
<path d="M217 4243 c-4 -3 -7 -13 -7 -21 0 -12 3 -12 15 -2 8 7 15 16 15 21 0
11 -14 12 -23 2z"/>
<path d="M1751 4234 c0 -11 3 -14 6 -6 3 7 2 16 -1 19 -3 4 -6 -2 -5 -13z"/>
<path d="M7897 4243 c-4 -3 -7 -13 -7 -21 0 -12 3 -12 15 -2 8 7 15 16 15 21
0 11 -14 12 -23 2z"/>
<path d="M9431 4234 c0 -11 3 -14 6 -6 3 7 2 16 -1 19 -3 4 -6 -2 -5 -13z"/>
<path d="M267 4097 c-3 -7 -2 -19 3 -26 5 -9 9 -8 14 5 4 9 3 21 -2 26 -6 6
-12 4 -15 -5z"/>
<path d="M7947 4097 c-3 -7 -2 -19 3 -26 5 -9 9 -8 14 5 4 9 3 21 -2 26 -6 6
-12 4 -15 -5z"/>
<path d="M2310 4084 c0 -8 5 -12 10 -9 6 4 8 11 5 16 -9 14 -15 11 -15 -7z"/>
<path d="M9990 4084 c0 -8 5 -12 10 -9 6 4 8 11 5 16 -9 14 -15 11 -15 -7z"/>
<path d="M242 4060 c0 -14 2 -19 5 -12 2 6 2 18 0 25 -3 6 -5 1 -5 -13z"/>
<path d="M7922 4060 c0 -14 2 -19 5 -12 2 6 2 18 0 25 -3 6 -5 1 -5 -13z"/>
<path d="M16127 4053 c-12 -11 -8 -23 8 -23 8 0 15 7 15 15 0 16 -12 20 -23 8z"/>
<path d="M270 3976 c0 -9 5 -16 10 -16 6 0 10 4 10 9 0 6 -4 13 -10 16 -5 3
-10 -1 -10 -9z"/>
<path d="M7950 3976 c0 -9 5 -16 10 -16 6 0 10 4 10 9 0 6 -4 13 -10 16 -5 3
-10 -1 -10 -9z"/>
<path d="M6544 3957 c-8 -21 2 -35 16 -21 5 5 6 15 0 24 -8 12 -10 12 -16 -3z"/>
<path d="M12914 3957 c-8 -21 2 -35 16 -21 5 5 6 15 0 24 -8 12 -10 12 -16 -3z"/>
<path d="M307 3943 c-10 -9 -9 -23 1 -23 5 0 9 7 9 15 0 17 -1 18 -10 8z"/>
<path d="M7987 3943 c-10 -9 -9 -23 1 -23 5 0 9 7 9 15 0 17 -1 18 -10 8z"/>
<path d="M290 3869 c0 -5 5 -7 10 -4 6 3 10 8 10 11 0 2 -4 4 -10 4 -5 0 -10
-5 -10 -11z"/>
<path d="M7970 3869 c0 -5 5 -7 10 -4 6 3 10 8 10 11 0 2 -4 4 -10 4 -5 0 -10
-5 -10 -11z"/>
<path d="M265 3860 c-3 -5 -1 -10 4 -10 6 0 11 5 11 10 0 6 -2 10 -4 10 -3 0
-8 -4 -11 -10z"/>
<path d="M7945 3860 c-3 -5 -1 -10 4 -10 6 0 11 5 11 10 0 6 -2 10 -4 10 -3 0
-8 -4 -11 -10z"/>
<path d="M10870 3796 c0 -25 3 -47 8 -49 4 -3 7 17 8 44 0 27 -3 49 -8 49 -4
0 -8 -20 -8 -44z"/>
<path d="M8716 3058 c-9 -12 -16 -28 -16 -36 0 -17 -81 -265 -130 -398 -22
-57 -37 -111 -34 -119 4 -8 17 -15 29 -15 22 0 23 -3 15 -32 -15 -53 -87 -455
-101 -558 -11 -88 -16 -100 -62 -170 -66 -99 -188 -220 -257 -256 -78 -40
-169 -41 -228 -1 -78 51 -111 129 -112 258 -1 307 231 807 440 945 55 37 123
39 151 5 35 -43 20 -169 -36 -294 -27 -62 -24 -90 9 -85 27 4 83 138 101 244
29 168 -33 245 -172 214 -167 -37 -374 -325 -486 -675 -51 -161 -61 -216 -61
-350 0 -102 3 -129 22 -177 39 -97 151 -178 247 -178 46 0 132 28 179 58 51
32 147 122 196 184 l38 47 4 -112 c6 -144 32 -201 73 -161 13 14 13 19 -2 47
-51 98 11 541 183 1310 49 222 62 292 54 307 -14 26 -25 25 -44 -2z"/>
<path d="M7296 2912 c-18 -34 -56 -185 -87 -339 l-22 -112 -46 -6 c-115 -16
-347 -67 -360 -80 -17 -17 -7 -45 17 -45 10 0 59 9 109 20 49 11 130 26 178
34 l87 14 -6 -42 c-55 -378 -55 -377 -82 -409 -36 -44 -140 -133 -192 -163
-28 -16 -54 -24 -75 -22 -29 3 -32 6 -35 42 -5 64 4 83 56 108 70 34 187 154
201 206 14 50 6 87 -22 107 -60 42 -150 -14 -215 -132 -21 -40 -43 -62 -93
-94 -35 -23 -85 -59 -110 -80 l-46 -38 -7 70 c-13 141 -63 174 -130 86 -13
-17 -54 -93 -91 -167 -75 -149 -110 -206 -164 -263 -71 -76 -146 -89 -203 -38
-32 29 -33 31 -32 113 0 101 31 201 112 363 172 346 449 645 598 645 97 0 99
-134 6 -343 -23 -53 -24 -60 -10 -74 23 -22 36 -9 70 65 37 81 68 201 68 261
0 95 -62 157 -148 148 -86 -9 -168 -61 -293 -186 -281 -281 -505 -743 -460
-946 22 -99 89 -145 198 -132 97 11 194 120 305 347 88 179 98 196 109 178 5
-7 9 -52 9 -101 l0 -87 -59 -73 c-180 -220 -277 -465 -224 -567 22 -43 79 -76
115 -67 97 25 185 262 217 582 l10 100 51 47 c73 68 146 117 135 92 -4 -10
-10 -54 -13 -96 -4 -62 -1 -83 12 -103 50 -77 166 -43 314 90 l53 48 -8 -69
c-4 -38 -8 -159 -8 -269 0 -160 4 -213 18 -265 21 -77 41 -110 66 -110 29 0
32 25 11 73 -33 74 -43 177 -37 372 9 261 22 347 62 420 47 84 73 153 105 280
l28 110 69 6 c37 4 98 7 136 8 66 1 67 1 67 -25 0 -25 3 -26 33 -20 17 3 68
17 112 30 71 21 80 27 80 47 l0 24 -243 -1 -244 0 6 35 c11 75 18 347 9 381
-12 47 -46 53 -67 12z m4 -309 c-6 -65 -14 -121 -17 -125 -9 -16 -34 -8 -30
10 3 9 15 68 28 130 12 61 24 110 27 108 2 -3 -1 -58 -8 -123z m-30 -205 c0
-22 -50 -199 -61 -217 -8 -12 -9 -9 -5 14 3 17 10 64 16 105 6 41 14 83 16 93
6 19 34 24 34 5z m-290 -246 c0 -48 -68 -125 -157 -176 -33 -19 66 154 104
183 38 28 53 26 53 -7z m-520 -599 c-43 -247 -110 -397 -168 -379 -23 8 -42
46 -42 86 0 84 86 269 187 401 48 64 51 51 23 -108z"/>
<path d="M10817 2913 c-31 -62 -108 -414 -153 -703 -16 -100 -19 -110 -25 -77
-9 57 -39 82 -97 82 -26 0 -65 -9 -87 -20 -54 -26 -127 -100 -166 -169 -38
-69 -139 -172 -223 -226 -47 -31 -69 -40 -96 -38 -33 3 -35 5 -38 42 -5 64 4
83 56 108 70 34 187 154 201 206 14 50 6 87 -22 107 -69 48 -166 -26 -239
-181 -46 -98 -109 -166 -208 -224 -83 -48 -148 -70 -209 -70 -67 0 -92 22 -98
86 l-5 49 119 120 c185 188 257 292 251 363 -4 44 -39 69 -82 58 -39 -10 -126
-95 -183 -177 -25 -38 -48 -67 -50 -65 -2 2 27 151 63 332 81 397 81 399 58
408 -10 4 -23 1 -30 -6 -7 -7 -40 -101 -73 -208 -144 -460 -271 -753 -383
-883 -69 -81 -155 -110 -199 -66 -33 33 -22 121 28 229 39 84 101 156 126 147
11 -4 12 -17 5 -92 -2 -24 1 -31 19 -33 28 -4 53 42 53 98 0 49 -34 90 -75 90
-68 0 -126 -61 -196 -205 -48 -99 -124 -206 -162 -229 -48 -29 -46 99 3 262
34 111 33 135 -2 130 -20 -3 -27 -18 -56 -117 -41 -145 -50 -233 -29 -283 31
-74 92 -75 163 -2 29 30 44 40 44 29 0 -29 30 -74 60 -90 33 -17 106 -20 145
-5 40 15 131 106 179 179 57 86 107 188 167 336 27 66 49 116 49 110 0 -5 -14
-82 -30 -170 -17 -88 -30 -170 -30 -183 0 -12 -18 -42 -41 -67 -46 -50 -48
-81 -3 -72 22 4 25 2 20 -17 -10 -43 -16 -222 -8 -255 10 -45 38 -63 58 -37
12 17 12 23 -1 42 -10 16 -13 40 -8 93 3 39 10 71 15 71 5 0 20 -7 33 -16 75
-49 285 13 415 123 l30 25 0 -51 c0 -71 31 -106 93 -105 57 1 117 31 199 98
l66 54 5 -44 c10 -92 80 -125 170 -80 50 24 148 116 206 191 22 29 22 29 17 5
-3 -14 -10 -95 -17 -180 -24 -319 12 -580 80 -580 29 0 32 25 11 73 -32 73
-43 177 -37 362 6 186 31 431 51 510 7 28 30 105 49 172 55 187 109 463 111
568 1 86 0 90 -21 93 -16 2 -26 -5 -36 -25z m-1140 -656 c-25 -34 -84 -100
-132 -147 l-87 -85 32 65 c44 89 107 175 171 235 l54 50 3 -28 c3 -20 -9 -45
-41 -90z m453 -105 c0 -15 -11 -44 -25 -64 -25 -37 -122 -115 -131 -105 -11
10 52 122 89 159 45 46 67 49 67 10z m440 -7 c10 -12 11 -24 2 -52 -12 -40 0
-68 25 -59 25 10 13 -12 -56 -101 -150 -195 -269 -229 -248 -72 13 100 111
243 192 280 49 23 69 24 85 4z"/>
<path d="M8710 2300 c-34 -34 -21 -90 22 -90 22 0 50 52 41 77 -13 37 -35 41
-63 13z"/>
</g>
</svg>
