<svg width="58" height="81" viewBox="0 0 58 81" fill="none" xmlns="http://www.w3.org/2000/svg">
<path d="M50.2779 70.8308V7.18256C50.2779 5.27763 49.5212 3.45072 48.1742 2.10372C46.8272 0.756732 45.0003 0 43.0954 0H7.18256C5.27763 0 3.45072 0.756732 2.10372 2.10372C0.756732 3.45072 0 5.27763 0 7.18256V70.8308L25.139 54.4151L50.2779 70.8308ZM10.7738 21.5477L20.3518 20.3518L25.139 10.7738L29.9262 20.3518L39.5041 21.5477L31.5207 28.3316L34.7169 39.5041L25.139 33.1188L15.561 39.5041L18.7573 28.3316L10.7738 21.5477Z" fill="#78AEEE"/>
<path d="M54.9999 75.5529V11.9046C54.9999 9.99967 54.2431 8.17276 52.8961 6.82577C51.5491 5.47878 49.7222 4.72205 47.8173 4.72205H11.9045C9.99955 4.72205 8.17264 5.47878 6.82565 6.82577C5.47866 8.17276 4.72192 9.99967 4.72192 11.9046V75.5529L29.8609 59.1371L54.9999 75.5529ZM15.4958 26.2697L25.0737 25.0738L29.8609 15.4959L34.6481 25.0738L44.226 26.2697L36.2426 33.0537L39.4388 44.2261L29.8609 37.8408L20.2829 44.2261L23.4792 33.0537L15.4958 26.2697Z" stroke="#003964" stroke-width="5"/>
</svg>
