<svg width="78" height="78" viewBox="0 0 78 78" fill="none" xmlns="http://www.w3.org/2000/svg">
<path d="M63.6935 17.605H10.4545C9.81865 17.7281 9.16343 17.709 8.53579 17.5491C7.90815 17.3893 7.32363 17.0926 6.82408 16.6804C6.32454 16.2682 5.92233 15.7506 5.64627 15.1647C5.37021 14.5788 5.22712 13.9391 5.22726 13.2914V13.208L61.4972 11.016V5.78877C61.5889 5.00885 61.5022 4.21829 61.2437 3.47678C60.9851 2.73528 60.5615 2.06221 60.0047 1.5084C59.448 0.954602 58.7726 0.534545 58.0298 0.279956C57.2869 0.0253663 56.4959 -0.0571005 55.7165 0.038783L5.75438 8.16081C4.06818 8.78327 2.61293 9.90698 1.58423 11.3809C0.555532 12.8549 0.00268673 14.6084 0 16.4058L0 63.7235C0 65.471 0.694195 67.147 1.92987 68.3826C3.16554 69.6183 4.84148 70.3125 6.58899 70.3125H63.6935C65.441 70.3125 67.117 69.6183 68.3526 68.3826C69.5883 67.147 70.2825 65.471 70.2825 63.7235V24.1457L70.2869 23.9656C70.2869 22.2763 69.6158 20.6563 68.4214 19.4618C67.2269 18.2673 65.6068 17.5962 63.9175 17.5962L63.6847 17.6006L63.6935 17.605ZM57.1045 48.3536C55.3564 48.353 53.6802 47.658 52.4445 46.4216C51.2088 45.1851 50.515 43.5083 50.5156 41.7602C50.5161 40.0121 51.2111 38.3359 52.4476 37.1002C53.6841 35.8645 55.3608 35.1707 57.1089 35.1713C57.9745 35.1715 58.8315 35.3423 59.6311 35.6738C60.4307 36.0053 61.1571 36.4911 61.769 37.1033C62.3808 37.7156 62.8661 38.4423 63.197 39.2421C63.528 40.0419 63.6982 40.8991 63.6979 41.7646C63.6976 42.6302 63.5269 43.4872 63.1954 44.2868C62.8638 45.0864 62.3781 45.8128 61.7659 46.4247C61.1536 47.0365 60.4268 47.5218 59.627 47.8527C58.8273 48.1837 57.9701 48.3539 57.1045 48.3536Z" fill="#78AEEE"/>
<path d="M68.381 22.2925H15.142C14.5061 22.4156 13.8509 22.3965 13.2233 22.2366C12.5957 22.0768 12.0111 21.7801 11.5116 21.3679C11.012 20.9557 10.6098 20.4381 10.3338 19.8522C10.0577 19.2663 9.91462 18.6266 9.91476 17.9789V17.8955L66.1847 15.7035V10.4763C66.2764 9.69635 66.1897 8.90579 65.9312 8.16428C65.6726 7.42277 65.249 6.74971 64.6922 6.1959C64.1355 5.6421 63.4601 5.22205 62.7173 4.96746C61.9744 4.71287 61.1834 4.6304 60.404 4.72628L10.4419 12.8483C8.75568 13.4708 7.30043 14.5945 6.27173 16.0684C5.24303 17.5424 4.69019 19.2959 4.6875 21.0933L4.6875 68.411C4.6875 70.1585 5.38169 71.8345 6.61737 73.0701C7.85304 74.3058 9.52898 75 11.2765 75H68.381C70.1285 75 71.8045 74.3058 73.0401 73.0701C74.2758 71.8345 74.97 70.1585 74.97 68.411V28.8332L74.9744 28.6531C74.9744 26.9638 74.3033 25.3438 73.1089 24.1493C71.9144 22.9548 70.2943 22.2837 68.605 22.2837L68.3722 22.2881L68.381 22.2925ZM61.792 53.0411C60.0439 53.0405 58.3677 52.3455 57.132 51.109C55.8963 49.8725 55.2025 48.1958 55.203 46.4477C55.2036 44.6996 55.8986 43.0234 57.1351 41.7877C58.3716 40.552 60.0483 39.8582 61.7964 39.8588C62.662 39.859 63.519 40.0298 64.3186 40.3613C65.1182 40.6928 65.8446 41.1786 66.4565 41.7908C67.0683 42.4031 67.5536 43.1298 67.8845 43.9296C68.2155 44.7294 68.3857 45.5866 68.3854 46.4521C68.3851 47.3177 68.2144 48.1747 67.8828 48.9743C67.5513 49.7739 67.0656 50.5003 66.4533 51.1122C65.8411 51.724 65.1143 52.2093 64.3145 52.5402C63.5148 52.8712 62.6576 53.0414 61.792 53.0411V53.0411Z" stroke="#003964" stroke-width="5"/>
</svg>
