<svg width="18" height="32" viewBox="0 0 18 32" fill="none" xmlns="http://www.w3.org/2000/svg">
<path d="M10.07 30V16.6666H14.5455L15.6644 11.1111H10.07V8.88886C10.07 6.66664 11.191 5.55554 13.4266 5.55554H15.6644V0C14.5455 0 13.158 0 11.1888 0C7.07693 0 4.47554 3.20109 4.47554 7.77775V11.1111H0V16.6666H4.47554V29.9999L10.07 30Z" fill="#5DA0F0" fill-opacity="0.8"/>
<path d="M12.07 17.6666H11.07V18.6666V31L7.47554 30.9999V18.6666V17.6666H6.47554H3V14.1111H6.47554H7.47554V13.1111V9.77775C7.47554 7.67247 8.07333 5.97398 9.05275 4.81958C10.0185 3.68124 11.4131 3 13.1888 3H13.2004H13.2119H13.2234H13.2349H13.2464H13.2578H13.2693H13.2807H13.2921H13.3036H13.315H13.3263H13.3377H13.3491H13.3604H13.3718H13.3831H13.3944H13.4057H13.417H13.4282H13.4395H13.4507H13.462H13.4732H13.4844H13.4956H13.5067H13.5179H13.5291H13.5402H13.5513H13.5624H13.5735H13.5846H13.5957H13.6068H13.6178H13.6288H13.6399H13.6509H13.6619H13.6729H13.6838H13.6948H13.7057H13.7167H13.7276H13.7385H13.7494H13.7603H13.7711H13.782H13.7928H13.8037H13.8145H13.8253H13.8361H13.8469H13.8577H13.8684H13.8792H13.8899H13.9006H13.9113H13.922H13.9327H13.9434H13.954H13.9647H13.9753H13.9859H13.9965H14.0071H14.0177H14.0283H14.0389H14.0494H14.0599H14.0705H14.081H14.0915H14.102H14.1124H14.1229H14.1334H14.1438H14.1542H14.1646H14.175H14.1854H14.1958H14.2062H14.2165H14.2269H14.2372H14.2475H14.2578H14.2681H14.2784H14.2887H14.2989H14.3092H14.3194H14.3296H14.3399H14.3501H14.3602H14.3704H14.3806H14.3907H14.4009H14.411H14.4211H14.4312H14.4413H14.4514H14.4615H14.4715H14.4816H14.4916H14.5016H14.5116H14.5217H14.5316H14.5416H14.5516H14.5615H14.5715H14.5814H14.5913H14.6012H14.6111H14.621H14.6309H14.6408H14.6506H14.6604H14.6703H14.6801H14.6899H14.6997H14.7095H14.7192H14.729H14.7388H14.7485H14.7582H14.7679H14.7776H14.7873H14.797H14.8067H14.8163H14.826H14.8356H14.8453H14.8549H14.8645H14.8741H14.8837H14.8932H14.9028H14.9123H14.9219H14.9314H14.9409H14.9504H14.9599H14.9694H14.9789H14.9883H14.9978H15.0072H15.0166H15.0261H15.0355H15.0449H15.0542H15.0636H15.073H15.0823H15.0917H15.101H15.1103H15.1196H15.1289H15.1382H15.1475H15.1568H15.166H15.1753H15.1845H15.1937H15.2029H15.2121H15.2213H15.2305H15.2397H15.2488H15.258H15.2671H15.2763H15.2854H15.2945H15.3036H15.3127H15.3217H15.3308H15.3399H15.3489H15.358H15.367H15.376H15.385H15.394H15.403H15.4119H15.4209H15.4299H15.4388H15.4477H15.4567H15.4656H15.4745H15.4834H15.4922H15.5011H15.51H15.5188H15.5277H15.5365H15.5453H15.5541H15.5629H15.5717H15.5805H15.5893H15.598H15.6068H15.6155H15.6243H15.633H15.6417H15.6504H15.6591H15.6678H15.6764H15.6851H15.6938H15.7024H15.711H15.7197H15.7283H15.7369H15.7455H15.754H15.7626H15.7712H15.7797H15.7883H15.7968H15.8053H15.8139H15.8224H15.8309H15.8393H15.8478H15.8563H15.8648H15.8732H15.8816H15.8901H15.8985H15.9069H15.9153H15.9237H15.9321H15.9404H15.9488H15.9572H15.9655H15.9738H15.9822H15.9905H15.9988H16.0071H16.0154H16.0237H16.0319H16.0402H16.0484H16.0567H16.0649H16.0731H16.0814H16.0896H16.0978H16.106H16.1141H16.1223H16.1305H16.1386H16.1468H16.1549H16.163H16.1711H16.1792H16.1873H16.1954H16.2035H16.2116H16.2196H16.2277H16.2357H16.2438H16.2518H16.2598H16.2678H16.2758H16.2838H16.2918H16.2997H16.3077H16.3157H16.3236H16.3315H16.3395H16.3474H16.3553H16.3632H16.3711H16.379H16.3869H16.3947H16.4026H16.4104H16.4183H16.4261H16.4339H16.4418H16.4496H16.4574H16.4652H16.4729H16.4807H16.4885H16.4962H16.504H16.5117H16.5195H16.5272H16.5349H16.5426H16.5503H16.558H16.5657H16.5733H16.581H16.5887H16.5963H16.6039H16.6116H16.6192H16.6268H16.6344H16.642H16.6496H16.6572H16.6644V6.55554H15.4266C14.1562 6.55554 13.0189 6.87171 12.2055 7.67913C11.3906 8.4879 11.07 9.62134 11.07 10.8889V13.1111V14.1111H12.07H16.4429L15.7268 17.6666H12.07Z" stroke="#003964" stroke-width="2"/>
</svg>
