<svg width="16" height="16" viewBox="0 0 16 16" fill="none" xmlns="http://www.w3.org/2000/svg">
<rect width="16" height="16" rx="8" fill="#245B8F"/>
<path d="M8.00539 5.84C7.70539 5.84 7.45872 5.75333 7.26539 5.58C7.07872 5.4 6.98539 5.18 6.98539 4.92C6.98539 4.65333 7.07872 4.43333 7.26539 4.26C7.45872 4.08 7.70539 3.99 8.00539 3.99C8.29872 3.99 8.53872 4.08 8.72539 4.26C8.91872 4.43333 9.01539 4.65333 9.01539 4.92C9.01539 5.18 8.91872 5.4 8.72539 5.58C8.53872 5.75333 8.29872 5.84 8.00539 5.84ZM8.85539 6.42V12H7.14539V6.42H8.85539Z" fill="white"/>
</svg>
