<svg width="31" height="30" viewBox="0 0 31 30" fill="none" xmlns="http://www.w3.org/2000/svg">
<path d="M21.8894 0H6.8635C6.50632 0.06 6.14915 0.112 5.79609 0.184C2.81143 0.828 0.463125 3.3 0.0936354 6.252C-0.013106 7.088 0.00742129 7.944 0.00742129 8.788C0.00331585 12.82 -0.00900052 16.856 0.0115267 20.888C0.0320538 24.404 2.85659 27.476 6.44064 27.928C6.59664 27.948 6.74855 27.976 6.90455 28H21.8483C22.2178 27.936 22.5914 27.888 22.9568 27.808C25.9456 27.168 28.2939 24.68 28.6634 21.716C28.766 20.888 28.7455 20.044 28.7455 19.204C28.7496 15.18 28.7619 11.152 28.7414 7.128C28.7208 3.6 25.9168 0.536 22.3328 0.0720001C22.185 0.0560001 22.0372 0.024 21.8894 0Z" fill="#5DA0F0" fill-opacity="0.8"/>
<path d="M8.23666 13.996L8.23667 13.9949C8.24364 10.7351 10.9774 8.0412 14.3914 8.04467C17.8152 8.04813 20.5388 10.75 20.5359 14.0266C20.5289 17.2941 17.7997 19.9804 14.3811 19.9769C10.9554 19.9734 8.2262 17.2659 8.23666 13.996Z" fill="#5DA0F0" fill-opacity="0.8" stroke="#F2F2F2" stroke-width="2"/>
<path d="M22.3323 5.65227L22.3323 5.65227C22.725 5.65744 22.9809 5.96693 22.9755 6.25349L22.9755 6.25383C22.9695 6.58232 22.6913 6.86741 22.3257 6.86415L22.3255 6.86415C21.9296 6.86071 21.6716 6.55192 21.6784 6.25535L21.6785 6.25535L21.6786 6.24617C21.6829 5.93899 21.9518 5.64724 22.3323 5.65227Z" fill="#5DA0F0" fill-opacity="0.8" stroke="#F2F2F2" stroke-width="2"/>
<path d="M3.08589 8.3762L3.08559 8.37865C3.00257 9.02877 3.00454 9.69121 3.00671 10.4245C3.00706 10.5437 3.00742 10.6648 3.00742 10.788V10.789C3.0066 11.596 3.00545 12.4029 3.0043 13.2096C2.9997 16.436 2.99511 19.6603 3.01151 22.8825C3.02912 25.8694 5.45204 28.5432 8.56576 28.9359L8.5678 28.9361C8.6857 28.9512 8.82162 28.9735 8.93169 28.9915C8.94976 28.9945 8.96714 28.9973 8.98363 29H23.7636C23.8854 28.9795 23.9965 28.962 24.1014 28.9455C24.328 28.9098 24.5261 28.8786 24.7429 28.8311L24.7474 28.8302C27.339 28.2752 29.3562 26.1152 29.671 23.593C29.7505 22.9514 29.7485 22.3009 29.7462 21.5771C29.7459 21.4549 29.7455 21.3307 29.7455 21.204V21.203C29.7463 20.3976 29.7474 19.5925 29.7486 18.7874C29.7532 15.5674 29.7578 12.3496 29.7414 9.13382L3.08589 8.3762ZM3.08589 8.3762C3.39948 5.87079 5.41133 3.72399 8.00152 3.16269C8.23286 3.11566 8.45757 3.07933 8.70434 3.03942C8.78245 3.02679 8.86278 3.0138 8.94624 3M3.08589 8.3762L8.94624 3M8.94624 3H23.8028C23.8047 3.00034 23.8066 3.00068 23.8085 3.00103C23.9131 3.01982 24.0792 3.04966 24.213 3.06484C27.3223 3.47169 29.7238 6.13444 29.7414 9.1336L8.94624 3Z" stroke="#003964" stroke-width="2"/>
<path d="M10.2367 15.996L10.2367 15.9949C10.2436 12.7351 12.9774 10.0412 16.3914 10.0447C19.8152 10.0481 22.5388 12.75 22.5359 16.0266C22.5289 19.2941 19.7997 21.9804 16.3811 21.9769C12.9554 21.9734 10.2262 19.2659 10.2367 15.996Z" stroke="#003964" stroke-width="2"/>
<path d="M24.3323 7.65227L24.3323 7.65227C24.725 7.65744 24.9809 7.96693 24.9755 8.25349L24.9755 8.25383C24.9695 8.58232 24.6913 8.86741 24.3257 8.86415L24.3255 8.86415C23.9296 8.86071 23.6716 8.55192 23.6784 8.25535L23.6785 8.25535L23.6786 8.24617C23.6829 7.93899 23.9518 7.64724 24.3323 7.65227Z" stroke="#003964" stroke-width="2"/>
</svg>
