<svg xmlns="http://www.w3.org/2000/svg" width="34" height="31" fill="none" xmlns:v="https://vecta.io/nano"><path d="M24.47 28.993V18.518c0-.732-.064-1.453-.298-2.152-.098-.3-.223-.578-.378-.842-.45-.773-1.144-1.2-2.035-1.354-.483-.077-.967-.07-1.45.03-.646.133-1.204.423-1.67.872-.744.72-1.182 1.575-1.186 2.616l-.008.522V29H10.78V9.453h6.65c.03.22.01.438.015.655v2.005c.015.004.03.007.045.015l.15-.2c.453-.644.978-1.22 1.62-1.7.95-.695 2.028-1.074 3.206-1.2 1.208-.13 2.398-.052 3.56.3 2 .618 3.383 1.902 4.233 3.753.423.923.657 1.898.785 2.9.083.66.102 1.324.102 1.987V29l-6.676-.007zM.413 9.45h6.65v19.543H.413V9.45zm3.312-2.666a4.39 4.39 0 0 1-1.726-.346C.6 5.827-.107 4.477.013 3.082c.125-1.5 1.2-2.7 2.896-3 .808-.143 1.616-.114 2.394.18 1.303.493 2.013 1.44 2.18 2.778.204 1.637-.83 3.355-3 3.676l-.748.066z" fill-opacity=".8" fill="#5da0f0"/><mask id="A" fill="#fff"><path d="M26.47 30.993V20.518c0-.732-.064-1.453-.298-2.152-.098-.29-.223-.578-.378-.843-.45-.773-1.144-1.2-2.035-1.354-.483-.077-.967-.07-1.45.03-.646.132-1.204.423-1.67.872-.744.72-1.182 1.575-1.186 2.616l-.008.522V31H12.78V11.453h6.65c.03.22.01.438.015.655v2.005c.015.004.03.007.045.015l.15-.2c.453-.644.978-1.22 1.62-1.69.95-.695 2.028-1.074 3.206-1.2 1.208-.13 2.398-.052 3.56.31 2 .618 3.383 1.902 4.233 3.753.423.923.657 1.898.785 2.9.083.66.102 1.324.102 1.987V31l-6.676-.007z"/></mask><path d="M26.47 30.993h-2v2h2v-2zm-.298-12.627l1.896-.635-.002-.005-1.895.64zm-.378-.843l-1.73 1.006.002.004 1.727-1.01zM23.76 16.17l.318-1.975h-.002l-.316 1.975zm-1.45.03l.403 1.96-.403-1.96zm-1.67.872l-1.4-1.438v.002l1.392 1.436zm-1.186 2.616l-2-.007v.007h2zM19.448 31v2h2v-2h-2zm-6.668 0h-2v2h2v-2zm0-19.547v-2h-2v2h2zm6.65 0l1.982-.27-.237-1.73H19.43v2zm.015.655l2-.035-2 .035zm0 2.005h-2v1.57l1.527.372.473-1.943zm.045.015l-.876 1.798 1.493.727.99-1.334-1.607-1.19zm.15-.2l1.607 1.19.015-.02.014-.02-1.636-1.15zm1.62-1.69l1.177 1.617.003-.002-1.18-1.615zm3.206-1.2l.212 1.99-.212-1.99zm3.56.31l-.592 1.9h.002l.6-1.91zm4.233 3.753l1.818-.833-.001-.002-1.818.835zm.785 2.9l1.984-.25-.001-.004-1.984.255zM33.147 31l-.007 2 2.007.007V31h-2zm-4.676-.007v-.305h-4v.305l4 .001zm0-.305v-10.17h-4v10.17h4zm0-10.17c0-.84-.072-1.802-.402-2.787L24.276 19c.138.412.195.893.195 1.517h4zm-.404-2.792c-.134-.395-.31-.8-.546-1.212l-3.453 2.018c.075.128.147.287.21.473l3.8-1.28zm-.544-1.208c-.78-1.343-2.026-2.094-3.446-2.323l-.636 3.95c.362.058.507.183.624.385l3.458-2.01zm-3.448-2.323c-.713-.114-1.44-.104-2.168.045l.805 3.918c.24-.05.48-.054.732-.014l.63-3.95zm-2.168.045a5.31 5.31 0 0 0-2.657 1.393l2.78 2.876c.183-.177.396-.292.68-.35l-.804-3.918zm-2.66 1.395c-1.054 1.022-1.787 2.367-1.794 4.045l4 .015c.002-.404.144-.767.578-1.187l-2.784-2.872zm-1.794 4.052l-.003.216-.004.306h4l.008-.522h-4zm-.008.522v10.478h4V20.21h-4zm0 10.478v.305l4 .008v-.305l-4-.008zm2-1.687H12.78v4h6.668v-4zm-4.668 2V11.453h-4V31h4zm-2-17.547h6.65v-4h-6.65v4zm4.668-1.73c-.004-.027-.001-.026-.001.05l-.002.144v.226l4-.07.003-.283c.001-.143-.002-.36-.036-.61l-3.963.542zm-.003.417v.655h4v-.72l-4 .066zm0 .655v.662h4v-.662h-4zm0 .662v.655h4v-.655h-4zm1.527 2.598c.016.004-.03-.007-.087-.024-.064-.02-.16-.052-.27-.106l1.752-3.596c-.126-.062-.237-.1-.316-.124l-.093-.026-.04-.01-.947 3.886zm2.125-.738l.054-.07.097-.128-3.213-2.382-.054.07-.097.128 3.213 2.382zm.18-.24c.36-.5.737-.914 1.16-1.223l-2.354-3.234c-.86.626-1.53 1.377-2.078 2.155l3.27 2.302zm1.164-1.225c.634-.463 1.366-.733 2.237-.825l-.422-3.978c-1.485.158-2.906.646-4.175 1.573l2.36 3.23zm2.238-.825c.983-.105 1.894-.037 2.756.23l1.185-3.82c-1.463-.454-2.93-.54-4.365-.387l.424 3.977zm2.758.23c1.427.44 2.38 1.313 3.005 2.676l3.635-1.67c-1.073-2.338-2.884-4.034-5.46-4.83l-1.18 3.822zm3.005 2.675c.317.692.5 1.46.62 2.32l3.967-.51c-.146-1.14-.422-2.322-.95-3.477l-3.637 1.665zm.62 2.317c.068.536.086 1.106.086 1.736h4c0-.694-.02-1.456-.118-2.237l-3.97.5zm.086 1.736v10.69h4V19.99h-4zm0 10.69v.306l4 .014v-.306l-4-.015zM33.153 29l-6.682-.007v4l6.67.007.013-4z" fill="#003964" mask="url(#A)"/><path d="M3.413 12.45h4.65l-.01 17.543h-4.64V12.45zm.984-4.93H4.4c.387.17.813.25 1.3.262l.25-.02.395-.037c1.623-.24 2.294-1.452 2.156-2.562h0c-.065-.523-.228-.916-.46-1.216S7.455 3.4 6.95 3.2L4.397 7.52zm0 0C3.412 7.093 2.923 6.166 3 5.17v-.004M4.397 7.52L3 5.165m0 0c.085-1.02.786-1.872 2.072-2.096h0M3 5.165L5.082 3.07m0 0h.003m-.003 0h.003m0 0c.67-.12 1.3-.087 1.865.13l-1.865-.13z" stroke="#003964" stroke-width="2"/></svg>