<svg width="36" height="23" viewBox="0 0 36 23" fill="none" xmlns="http://www.w3.org/2000/svg">
<path d="M34.3572 21.5977H2.04993C1.92272 21.5977 1.81763 21.497 1.81763 21.3692V1.22847C1.81763 1.10336 1.91995 1 2.04993 1H34.36C34.4872 1 34.5923 1.10064 34.5923 1.22847V21.3692C34.5895 21.497 34.4872 21.5977 34.3572 21.5977Z" fill="#7DB3F3" stroke="white" stroke-width="2" stroke-miterlimit="10" stroke-linecap="round" stroke-linejoin="round"/>
<path d="M2.49664 1.76472L17.273 11.51C17.7847 11.8472 18.4373 11.8472 18.949 11.5154C23.9353 8.26518 28.9216 5.01495 33.9106 1.76472" fill="#7DB3F3"/>
<path d="M2.49664 1.76472L17.273 11.51C17.7847 11.8472 18.4373 11.8472 18.949 11.5154C23.9353 8.26518 28.9216 5.01495 33.9106 1.76472" stroke="white" stroke-width="2" stroke-miterlimit="10" stroke-linecap="round" stroke-linejoin="round"/>
<path d="M33.2205 21.5977H7.18719C7.08468 21.5977 7 21.5166 7 21.4136V5.1841C7 5.08328 7.08245 5 7.18719 5H33.2227C33.3252 5 33.4099 5.08109 33.4099 5.1841V21.4136C33.4077 21.5166 33.3252 21.5977 33.2205 21.5977Z" stroke="#003964" stroke-width="2" stroke-miterlimit="10" stroke-linecap="round" stroke-linejoin="round"/>
<path d="M7.54715 5.61621L19.454 13.469C19.8663 13.7407 20.3922 13.7407 20.8045 13.4733C24.8225 10.8543 28.8404 8.23526 32.8606 5.61621" stroke="#003964" stroke-width="2" stroke-miterlimit="10" stroke-linecap="round" stroke-linejoin="round"/>
</svg>
