<svg width="26" height="25" viewBox="0 0 26 25" fill="none" xmlns="http://www.w3.org/2000/svg">
<path d="M22.4198 19.0562C21.8007 19.667 21.2037 20.3074 20.462 20.7973C19.601 21.3697 18.7023 21.6353 17.4799 21.6353C16.6251 21.656 15.7201 21.3225 14.8559 20.8445C10.0637 18.1886 6.03514 14.7567 2.83615 10.4689C2.06939 9.44198 1.36235 8.37964 0.699295 7.29664C-0.44455 5.43164 -0.168015 3.32466 1.4032 1.75475C1.80229 1.35637 2.21395 0.972749 2.63503 0.595027C3.53063 -0.204681 4.52992 -0.19878 5.40351 0.615684C6.31168 1.45966 7.2167 2.30953 8.11543 3.16531C8.7722 3.78796 8.89161 4.52275 8.45481 5.2959C8.13429 5.86248 7.78233 6.41136 7.45552 6.97204C7.09414 7.59764 7.15385 8.01077 7.6912 8.51834C9.76521 10.4689 11.8392 12.4195 13.9195 14.3671C14.4506 14.8658 14.9094 14.9249 15.5661 14.5884C16.1381 14.2963 16.7006 13.9805 17.2725 13.6855C18.1618 13.231 18.938 13.3313 19.6513 13.9953C20.5595 14.8422 21.4645 15.6892 22.3632 16.5449C23.1865 17.321 23.218 18.2653 22.4198 19.0562Z" fill="#7DB3F3"/>
<path d="M24.4198 21.0562C23.8007 21.667 23.2037 22.3074 22.462 22.7973C21.601 23.3697 20.7023 23.6353 19.4799 23.6353C18.6251 23.656 17.7201 23.3225 16.8559 22.8445C12.0637 20.1886 8.03514 16.7567 4.83615 12.4689C4.06939 11.442 3.36235 10.3796 2.6993 9.29664C1.55545 7.43164 1.83199 5.32466 3.4032 3.75475C3.80229 3.35637 4.21395 2.97275 4.63503 2.59503C5.53063 1.79532 6.52992 1.80122 7.40351 2.61568C8.31168 3.45966 9.2167 4.30953 10.1154 5.16531C10.7722 5.78796 10.8916 6.52275 10.4548 7.2959C10.1343 7.86248 9.78233 8.41136 9.45552 8.97204C9.09414 9.59764 9.15385 10.0108 9.6912 10.5183C11.7652 12.4689 13.8392 14.4195 15.9195 16.3671C16.4506 16.8658 16.9094 16.9249 17.5661 16.5884C18.1381 16.2963 18.7006 15.9806 19.2725 15.6855C20.1618 15.231 20.938 15.3313 21.6513 15.9953C22.5595 16.8422 23.4645 17.6892 24.3632 18.5449C25.1865 19.321 25.218 20.2653 24.4198 21.0562Z" stroke="#003964" stroke-width="2" stroke-miterlimit="10" stroke-linecap="round" stroke-linejoin="round"/>
</svg>
