<svg width="32" height="32" viewBox="0 0 32 32" fill="none" xmlns="http://www.w3.org/2000/svg">
<path d="M30 21V3C30 1.35 28.65 0 27 0H9C7.35 0 6 1.35 6 3V21C6 22.65 7.35 24 9 24H27C28.65 24 30 22.65 30 21ZM13.5 15L16.545 19.065L21 13.5L27 21H9L13.5 15ZM0 6V27C0 28.65 1.35 30 3 30H24V27H3V6H0Z" fill="#5DA0F0" fill-opacity="0.8"/>
<path d="M16.3004 16.4005L15.5005 15.3327L14.7 16.4L10.2 22.4L9.16183 23.7842C9.05776 23.543 9 23.2777 9 23V5C9 3.90228 9.90228 3 11 3H29C30.0977 3 31 3.90228 31 5V23C31 23.2558 30.951 23.501 30.8619 23.7266L29.7809 22.3753L23.7809 14.8753L23.0003 13.8995L22.2193 14.875L18.5713 19.4321L16.3004 16.4005ZM11 25C10.2656 25 9.61861 24.5961 9.27084 24H11H29H30.7292C30.3814 24.5961 29.7344 25 29 25H11ZM4 29V30H5H25V31H5C3.90228 31 3 30.0977 3 29V9H4V29Z" stroke="#003964" stroke-width="2"/>
</svg>
