<svg width="32" height="32" viewBox="0 0 32 32" fill="none" xmlns="http://www.w3.org/2000/svg">
<path d="M21.36 8.64C19.605 6.885 17.31 6 15 6V15L8.64 21.36C12.15 24.87 17.85 24.87 21.375 21.36C24.885 17.85 24.885 12.15 21.36 8.64ZM15 0C6.72 0 0 6.72 0 15C0 23.28 6.72 30 15 30C23.28 30 30 23.28 30 15C30 6.72 23.28 0 15 0ZM15 27C8.37 27 3 21.63 3 15C3 8.37 8.37 3 15 3C21.63 3 27 8.37 27 15C27 21.63 21.63 27 15 27Z" fill="#7DB3F3"/>
<path d="M22.6529 11.3471L22.6544 11.3486C25.787 14.4679 25.7871 19.5334 22.6681 22.6527C19.7731 25.534 15.2321 25.7531 12.0981 23.3161L17.7071 17.7071L18 17.4142V17V9.06247C19.7046 9.27647 21.3457 10.0399 22.6529 11.3471ZM3 17C3 9.27228 9.27228 3 17 3C24.7277 3 31 9.27228 31 17C31 24.7277 24.7277 31 17 31C9.27228 31 3 24.7277 3 17ZM4 17C4 24.1823 9.81772 30 17 30C24.1823 30 30 24.1823 30 17C30 9.81772 24.1823 4 17 4C9.81772 4 4 9.81772 4 17Z" stroke="#003964" stroke-width="2"/>
</svg>
