<svg xmlns="http://www.w3.org/2000/svg" width="40" height="28" fill="none" xmlns:v="https://vecta.io/nano"><path fill-rule="evenodd" d="M17.527 25.974l1.448.026.005-.054.888.001 2.216-.006 4.886-.103 4.942-.233c.58-.03 1.17-.1 1.732-.23 1.276-.296 2.294-.983 2.952-2.11.438-.75.695-1.566.847-2.4.12-.655.194-1.324.25-1.992l.198-3.015.032-4.24-.07-2.374-.17-2.3c-.07-.783-.138-1.57-.35-2.336-.203-.754-.433-1.5-.884-2.15-.847-1.216-2.072-1.85-3.55-2.006L30.07.244 26.076.096 21.65.015c-3.274-.04-6.554.004-9.833.08L9.856.16 9 .198 6.43.33 4.5.536a4.62 4.62 0 0 0-2.883 1.719C1.156 2.83.917 3.51.7 4.202.43 5.06.313 5.938.25 6.83l-.074.99-.147 2.403-.027 3.18v1.223l.032 1.346.163 2.334.086 1.188c.07.97.267 1.912.603 2.822.216.592.48 1.162.92 1.638.737.794 1.676 1.238 2.745 1.44a20.06 20.06 0 0 0 2.888.314l4.274.148 5.815.117zm7.78-13.36l-10.266 5.178V7.396l.758.386 9.507 4.833z" fill="#5da0f0" fill-opacity=".8"/><mask id="A" fill="#fff"><path fill-rule="evenodd" d="M19.527 27.974l1.448.026.005-.054.888.001 2.216-.006 4.886-.103 4.942-.233c.58-.03 1.17-.1 1.732-.23 1.276-.296 2.294-.983 2.952-2.11.438-.75.695-1.566.847-2.4.12-.655.194-1.324.25-1.992l.198-3.015.032-4.24-.07-2.374-.17-2.3c-.07-.783-.138-1.57-.35-2.336-.203-.754-.433-1.5-.884-2.15-.847-1.216-2.072-1.85-3.55-2.006l-2.828-.202-3.993-.148-4.426-.08c-3.274-.04-6.554.004-9.833.08l-1.962.063-.857.04-2.57.13-1.93.206a4.62 4.62 0 0 0-2.883 1.719c-.46.574-.7 1.256-.916 1.947-.272.857-.387 1.737-.45 2.63l-.074.99-.147 2.403L2 15.402v1.223l.032 1.346.163 2.334.086 1.188c.07.97.267 1.912.603 2.822.216.592.48 1.162.92 1.638.737.794 1.676 1.238 2.745 1.44a20.06 20.06 0 0 0 2.888.314l4.274.148 5.815.117zm7.78-13.36l-10.266 5.178V9.396l.758.386 9.507 4.833z"/></mask><path d="M20.975 28l-.037 2 2.037.038V28h-2zm-1.448-.026l-.036 2 .036-2zm1.45.01l-1.98-.28 1.98.28zm.003-.036v-2h-2v2h2zm.888.001l.005-2-.005 2zm2.216-.006l.026 2h.002l-.027-2zm4.886-.103l.066 2h.005l-.07-2zm4.942-.233l-.108-1.997h-.006l.114 1.997zm1.732-.23l.452 1.948-.452-1.948zm2.952-2.11l1.727 1 .001-.001-1.727-1.008zm.847-2.4l-1.967-.36-.001.005 1.968.355zm.25-1.992L37.7 20.69l-.001.01 1.993.165zm.198-3.015l2 .055v-.003l-2-.052zm.032-4.24l2-.006v-.005l-2 .012zm-.07-2.374l1.997-.105v-.004l-1.997.11zm-.17-2.293L37.7 9.12v.004l1.992-.18zm-.001-.006l-1.992.175v.001l1.992-.176zm-.35-2.336l-1.93.52.004.013 1.928-.532zm-.884-2.15l1.643-1.14v-.004l-1.64 1.143zm-3.55-2.006l.21-1.99h-.002l-.21 1.99zm-2.828-.202l-.1 1.997h.006l.095-1.998zm-3.993-.148l.054-2h-.005l-.05 2zm-4.426-.08l-.024 2 .024-2zm-9.833.08l-.046-2h-.008l.055 2zm-1.962.063L11.774.16h-.012l.094 1.998zm-.857.04l.1 1.998-.1-1.998zm-2.57.13l.125 1.996L8.43 2.33zm-1.93.206L6.152.566l-.005.001.352 1.97zm-2.883 1.72l1.56 1.25.007-.01-1.568-1.242zM2.7 6.202l1.906.604.002-.007-1.91-.598zm-.45 2.63L.254 8.687v.006l1.995.138zm-.074.99l1.994.155-1.994-.155zm-.147 2.403l-2-.056 2 .056zM2 15.402l2-.002-2 .002zm0 1.223l-2-.006v.006h2zm.032 1.346l-1.996.123v.002l1.996-.125zm.163 2.334L.2 20.452l1.995-.146zm.086 1.188l-1.995.14v.002l1.995-.142zm.603 2.822l1.88-.686-.002-.006-1.876.692zm.92 1.638l1.466-1.36-.001-.001-1.465 1.362zm2.745 1.44l-.37 1.965h.001l.37-1.965zm2.888.314l-.082 1.998.082-1.998zm4.274.148l-.05 2h.002l.048-2zm3.33-8.063h-2v3.25l2.9-1.465-.9-1.785zm10.266-5.178l.9 1.786 3.53-1.78-3.523-1.8-.906 1.783zm-10.266 5.177h2v-3.247l-2.9 1.46.9 1.786zm-.002.001h-2v3.247l2.9-1.46-.9-1.786zm0-10.397l.905-1.784L15.04 6.14v3.257h2zm.002.001l-.905 1.784 2.905 1.474V9.397h-2zm0-.001l.907-1.783-2.907-1.48v3.262h2zm.758.386l-.905 1.783.905-1.783zm8.013 4.074l-.906 1.783.906-1.783zM21.012 26l-1.448-.026-.073 4 1.447.027.074-4zm-2.015 1.702c0 0-.001.01-.003.02l-.007.055c-.005.048-.012.126-.012.223h4c0 .09-.006.164-.01.206l-.007.057-3.96-.56zm-.017.244l.008-.168.01-.077 3.96.562c.004-.03.023-.154.023-.317h-4zm2.893-2l-.893-.001v4l.883.001.01-4zm2.185-.006l-2.185.006-.01 4 2.247-.006-.052-4zm4.846-.102l-4.848.102.055 4 4.925-.104-.132-3.998zm4.893-.23l-4.898.23.14 3.997 4.985-.235-.23-3.994zm1.395-.18c-.416.096-.884.153-1.39.18l.216 3.994c.656-.035 1.367-.113 2.075-.277l-.902-3.897zm1.677-1.17c-.35.6-.876.984-1.678 1.17l.904 3.896c1.75-.406 3.26-1.394 4.226-3.048l-3.453-2.02zm.606-1.755c-.122.68-.317 1.26-.606 1.756l3.454 2.017c.585-1.002.907-2.056 1.09-3.063l-3.937-.71zm.224-1.802l-.223 1.797 3.935.72c.136-.745.217-1.486.275-2.187l-3.986-.33zm.192-2.905l-.19 2.896 3.985.348.205-3.135-3.998-.1zm.032-4.18l-.032 4.182 4 .104.033-4.3-4 .013zm-.066-2.275l.066 2.28 4-.023-.072-2.467-3.994.2zM37.7 9.124l.165 2.22 3.994-.217-.176-2.365-3.984.36zm-.001-.01l.001.006 3.984-.352V8.76l-3.985.352zm-.285-1.98c.155.56.214 1.166.285 1.98l3.985-.35c-.066-.753-.146-1.723-.414-2.693l-3.856 1.065zm-.6-1.542c.237.342.397.788.596 1.53l3.863-1.038c-.206-.767-.507-1.81-1.172-2.77l-3.287 2.28zm-2.12-1.157c1 .105 1.653.488 2.12 1.16l3.282-2.287c-1.226-1.76-3.014-2.642-4.98-2.85l-.423 3.978zm-2.71-.193l2.714.193.418-3.978-2.942-.21-.2 3.995zm-3.952-.147l3.946.146.202-3.995-4.04-.15-.108 4zm-4.396-.08l4.4.08.097-4-4.45-.08-.05 4zm-9.762.08l9.762-.08.05-4c-3.308-.04-6.613.005-9.904.08l.093 4zm-1.926.062l1.935-.062-.1-3.998-1.99.064.165 3.997zm-.85.04l.86-.04L11.762.16 10.91.2l.18 3.996zm-2.535.13l2.535-.13L10.91.2 8.304.333l.25 3.992zm-1.708.18c.522-.092 1.08-.14 1.707-.18L8.304.333 6.152.566l.695 3.94zm-1.663.99a2.62 2.62 0 0 1 1.668-.992L6.148.567C4.5.863 3.085 1.704 2.05 3.012l3.135 2.484zM4.61 6.8c.216-.688.366-1.042.568-1.294l-3.12-2.502C1.338 3.9 1.01 4.9.792 5.604L4.61 6.8zm-.365 2.176c.06-.825.16-1.528.363-2.17L.794 5.597c-.34 1.073-.47 2.13-.54 3.1l4 .288zm-.075 1l.075-1.006-4-.276-.073.973 3.988.31zm-.142 2.305l.142-2.305-3.988-.31-.152 2.5 3.998.114zM4 15.4l.027-3.12-3.998-.113-.028 3.238 4-.005zm0 1.23V15.4l-4 .005v1.214l4 .013zm.028 1.217L4 16.625H0l.036 1.47 3.992-.246zm.16 2.31l-.16-2.313-3.992.25.164 2.355 3.99-.292zm.086 1.194L4.2 20.16.2 20.452l.086 1.183 4-.28zm.485 2.27c-.268-.727-.428-1.484-.485-2.272l-4 .284c.082 1.15.318 2.278.722 3.373l3.753-1.385zm.5.97c-.17-.182-.32-.453-.507-.963l-3.757 1.373c.247.675.62 1.544 1.335 2.313l2.93-2.723zm1.65.837c-.74-.14-1.262-.417-1.65-.835l-2.932 2.72c1.086 1.17 2.443 1.78 3.84 2.045l.743-3.93zm2.6.28c-.898-.037-1.762-.123-2.6-.28l-.74 3.93c1.068.2 2.13.303 3.175.347L9.52 25.7zm4.24.147L9.52 25.7l-.164 3.997 4.306.15.1-4zm5.8.117l-5.803-.117-.096 4 5.827.117.073-4zm-1.62-4.395L28.208 16.4l-1.8-3.572-10.267 5.18 1.803 3.57zm-2.9-1.787v.001l4-.001h-4zm1.1-1.786l1.797 3.574-1.797-3.574zm2.897 1.787V9.396h-4v10.397h4zm-2.905-8.613l1.812-3.566-1.812 3.566zm-1.093-1.783v.001l4-.001h-4zM18.707 8l-.758-.386-1.814 3.565.758.386L18.707 8zm-1.812 3.566l8.012 4.073 1.814-3.565L18.705 8l-1.81 3.567zm11.32 1.266l-1.494-.76-1.812 3.566 1.494.76 1.812-3.566z" fill="#003964" mask="url(#A)"/></svg>